<mxfile host="app.diagrams.net" modified="2023-04-13T03:15:01.084Z" agent="Mozilla/5.0 (Macintosh; Intel Mac OS X 10_15_7) AppleWebKit/537.36 (KHTML, like Gecko) Chrome/112.0.0.0 Safari/537.36" etag="nxi5AhuRda1WvfatBJ0-" version="21.1.4" type="github">
  <diagram name="第 1 页" id="qRnL3jtGLyBpwK-5J7Cp">
    <mxGraphModel dx="995" dy="622" grid="1" gridSize="10" guides="1" tooltips="1" connect="1" arrows="1" fold="1" page="1" pageScale="1" pageWidth="1200" pageHeight="1920" math="0" shadow="0">
      <root>
        <mxCell id="0" />
        <mxCell id="1" parent="0" />
        <mxCell id="FGeQNSDKWj5AvoNFUdBD-3" value="" style="rounded=0;whiteSpace=wrap;html=1;" vertex="1" parent="1">
          <mxGeometry x="80" y="110" width="300" height="540" as="geometry" />
        </mxCell>
        <mxCell id="FGeQNSDKWj5AvoNFUdBD-4" value="" style="shape=image;verticalLabelPosition=bottom;labelBackgroundColor=default;verticalAlign=top;aspect=fixed;imageAspect=0;image=data:image/png,iVBORw0KGgoAAAANSUhEUgAAAhoAAAKECAYAAABB1ZMVAAAACXBIWXMAABYlAAAWJQFJUiTwAAAgAElEQVR4nOzdd3hTZfsH8G+SpjPde+/SQmkpe0+RIVMZMuQVXMhPBRV8RQRRVEBEFEUFBAERRAUVeNkbWVJoCwXa0tKW7kF30zbz90fkJKdZLc1o6f25rl5XnnOe8+RJocmdZ9yHExcZJ4cBVDRUGKIZQgghhDxGuObuACGEEEIeXxRoEEIIIcRoKNAghBBCiNFQoEEIIYQQo7EwdwcIIS03euVWWAscmfLxTxeguiCHKbuFdcTA+SuYcnnuPZxevchk/Vvy/TPw9FP079LRNOz++m+TPXdT9H75Xfh07sGUb/65A3dP/sWqM/6L3eDxLQEAUpkEBxc+B6lYZNJ+EtIWUaBByGPAr9sAcHk8pixw82IFGo6+QfDoGMeUXUIjTRpo+Ie6wlZgBQCI7hUAfG2yp26SwD7D4BwQypS9791RCzS8Y3uxyrbObqguzjdJ/whpy2jqhBBCCCFGQ4EGIYQQQoyGAg1CCCGEGA0FGoQQQggxmjYdaPC4FuBbWBr9eawtbY3+HM3B5XJhJxAYpB2Bvb0BegSt/eFyubC1bdnvzxCvlbRuNnaW4HI55u4GIcQIDLrrhMvh4q1xa2BrpfhguJR2AscTf9N7Xf+o0RjaeTxT/urgYlQKy1h1LPnW6BU+DAOiRiHAPRx21vbgcRWr7OvFdSipzEd2SSqOJexDeuHNJvd57oil8HD0AwBcz/wbB6/+BAdbJ0zuOxd9OgxnXotcLkOlsBzHEn/DwfidkEjFTX6O5urVrx/efv99pvz67NmQSCRYtno1evXrB0tLRXAlkUhQUlSENR99hDPHj+tsk8vl4onRozFhyhRERUfDTiCAhYXin18qlaKirAw52dk4ceQIdm3dqrWdZatWITo2FgCwd/duDBw2DN179wafz0edUIjL58/j7VdfRYeOHbFy/XoEBAWBy+WiTijEn7/+ijUffaT39U+dNQujxo1DYHAwHJycwOFwmNeanJSED995B0KhUG87pHne/mIcXDwU/98vHLqDQ7sSmt3G0k2TYG2r+P95+VgqDuy4prXukAmdMGFOTzi5CcD5N8YQ1jQg7UYBvvrv/yCVyDRe9+6GibB3tAEA3LtTjC2fnNDbr9BOnpizeBhTPvNXMo7/dqOpL6vFhrzzGVxDO7KOFdz4Bxc26P97IKStM2igIZPL0ME3FnbWim/J/m6hTQo0pvafC1d7TwCAWCJSCzJCvKLw8fRtWq+35tvA3y0U/m6h6B81Gnv+/g5//aO9vqquIQMgsFHs75dIxbidE4/lUzfDgsdn1eNwuHCyc8WUfnPh7uiNzcc+bVL7jyIoNBRhHTowZW8/P6zbtAmOTk6sehYWFvD29cUXGzdiy4YN2LB2rdY2L925Az6fr/Ecj8eDq7s7XN3d0aV7d4wcMwYvTpsGUUODWt0effrA198fAPDf5ctZ52xsbTFkxAisWLsWQ0aMYI1k2NjaYtrzz6OmuhrfrVunsR8Ce3ts2rULkZ06qZ17+Fq9fX3Rb/BgvPaf/yDxmvYPMdJ84Z29mC2og8d3anag4eHjiPDO3kw5wUbz/zcAGPd8d0x6pY/acVuBFbr0DcL6A3OwZOZuVDyoVavjE+gMJ1c7AIBfiCt2f3Uewhr1/6uqJs3tA/9QV6ZceN+0N4H07z4Qtq4erGMCDx8KNEi7YPCpk/N3DjGP7aztEeIVpbO+p5MvE2QAwNX0M2p1rCxstF4vl6t/65na/1X8d+KXTegtm521PT58dotakNEY18QzThu2bVMLMhqbM28enF1ctJ5/OHrRmFyufvPe6C5dcPLqVTg5Ozevo/96auJEJsho3P6UmTM1XhMWEYET//yjMchozNbWFlt+/RU9+qh/UBmap5MvIv3iWvSj72+gtbh/t5R57Obt0Ozruw8JYZUvH0/TWM87wEljkKHK3skGLywZpvHc6T+SmcccDjB+dg+N9R7icjmIjPNlyvVCEW5eua/zGkKI4Rg8YdfRhD0YGTeVKY+Mm4JvD3+otf6ILlNY5UPXd+lsPy3vBk7c2IesklQUlGVDKpNCYO2AoTETManPS0yQEBvcBxHeMUgraPrwaLBnJPO4pq4S524fRGreTdTUVyLQPQL9Ikcg1LujjhaMw+bfD+2jBw7g561bkZmRgYFDh2LpypWwtlEEYRwOBwuXLcOSBQt0tvWgtBR/7tmD+MuXkZyUhNqaGtgJBBgxdizeXLyYWQ9hJxBgweLFWP7OOzrb+2DRIhzYuxcff/EFRk+YwDr38ZIl2Ld7N5Z8/DGemT4dAODo7AwnZ2dUlJez6q757jtYWlkxZVFDA9Z+/DGOHTqE6spKdOzcGe99/DETiHA4HKxcvx5P9ND9IdNSy6ZshLPAvUVtCBtq8OIGzR+ahlJxPx0CT+WHqaiuhnW+PCsNDdWV4Pyb1EtYVqzWxs3L2cwHsgWfB3cfR5TkVza5D516BjCPpRIZcu+VaaxnwVf0oa5WhJ1fnEPChUw4uthiyry+iOsfzNSL6RUAGztL1NWys28e/Ok6JszpCc6/azr6j47UmWl06NPR4PGUXw4uHlUPgIrvJMDOTfmFp7a4QK1OdVEerOyV2VcpKyghTWPwQKOoIg+lVYVwc/ACAHQPGwJAe6DRN3Ik87i2vhr3Cu+o1SmvLcHRxN/w15VtqKgtVTtfU1+F/f9sR0puIpY/u4k5Pqnvy/h072vNfg3X0s/hq/+9x1qHcSf3Oo4k/IJOAT1gwTV9QtXPV6zArh9/ZMqH9+9H0vXrOHjuHHOs74ABWq+/ePYstm3ciGtXrqidq62pwb7du3HyyBEcv3KFGf0YOW6czkCjqrISB/buBQCsXLaMFWhUVlRg3+7dAIA1K1YwgQagmH45fkg58jV6wgQEBis/YEqLizFh6FDWOozkpCRMHzsWq9avx5NjxgAAXFxd8cr8+dj41Vda+9he/PriKJ3ny7LT8eOEOJ11Lh1Pw+RX+zLlHoNDmjV9EhDmxjwu1hOg1FTW462J21BfJ2bK6xYdxOINTyOqqyLY4XA56DksHGf332JdKxZJkJKYz9Szd7JBcKQHMlPUgycAGD45llXeu+myWp3Tn72D05/pDqp/nq7974sQop1R5gBO3VSm7rXm2yDKr5vGev5uoXCwVU4JqE67qCosz8H2U59rDDJUpeUnoaBMOSQa4B7WnG4DAEqrCrF2/yKtiz1v3b+KpKxLzW63JSrKy1lBxkP5ubnITE9nyrY6dme8PmeOxiBDVWV5OU4fPcqULS0tde5KuZ+VxTyuralhrenIvnePeSxqaEB9XR1TdnZVzpUDwDsffMA8lslkmD1litbFnu+9+SbqVM6NnzxZxytqOZGkAXK5rEU/xlw4bEilBdUQiyRMWXWEAgBcPe0xenocRk+PQ7+RkaxzHC4HDs7KNTmpCbpTc+/+5gITZKj6pdHIhJe/o1odQD1YePrl3hrr2TvZwDtAOQWYl/kA1RV1GusSQozDKF/NT9zYiyn9XmHKI7tOwZ1c9YV7I7tOZZWPJuxp8XPnPciEt4viDdLG0q7Z1289+VmL+2Boh/78U+u5rIwMBIcpAiptiz2b4/bNmxj+1FNM2T8wEHeSkzXWramuZpXFYjEz/VFdVcU6J5VKmceqa0ksLCzg4Kj8MEm9fRt597XPn8ukUlw4exZPjFJ8g3fz8NBa1xDe3PqMUdtvbQrulyMgTDFVFBDuxjr39Es9MeApxdShXA5cOXkXErHi3zWqiy+zcwQArp5KhzZSiQznD97WeK7xqIS7j+a1ImlJ+aiprIfA0RoAEN3DHxwuB3IZe03QxBd6ssqHdjZ/J40h5CZchFcn9heuipwMs/SFEFMzSqBRU1eJ+yXpzIhCXHA/cMCBHOw3gT4Rw5nHpVWFKKrI09t299BBGNRpDNwcvOEscIONpR04Ku9wD7e8AgBX5XFTSGVSJGZeaNY1ppCemqr1XEE++5ujg6Mjqiq1D1t36dYNL73xBrx9fODs4gJbgQBcrnJgS/V3CQC2dtqDtbpGow5isfIbauMRCdVzqotMH26VfSgqOhpXGr3exn3iqdw8zMLCAj5+fsjPzdXaT9J0d+LzmEDDwdmW9eEdrTLCweEAfUZ0YAKGroOUC0HlciA5PgfaNF5z0ZhUIgPPgsv0QZtzB29j9IyuAACeBReDx3XE6T/Z0yy9n4xgHkvEUpw/pD41awqnVr5lluclpDUw2vaJ40m/M48teHzEhfRnnY/wjmElwlKdbtGkR9gQfPvKIbw1/jN0CxuIQI9wONg6g29hCQsen/nhcJQvictpXgKg6jrTbnlrqnvp2r8dNjTagqoaNKiKjo3FX6dPY+tvv6HPgAEICg2Fo7Mz+Hw+eDwe89P4eitra63PXV9fzypLVIKJxkGI6rmHC1gBoHOc+roBPp/P+rGwsGD9NA48XNzc1Nogj+byCeVCSQ4H6BDrAwCwtLaAszt7aq7vCOWHeMS/9QCgorRGbWRBVXWl7qkL1Z1KupJ4/fXjVahuahrxbBfW+bBoLwgclP9/r5+/B0KI6Rkt0Dh/+xBr6+nw2Ems86o7UwDFdIs2XUMG4s1xq+Bk56p2TiqTol4kZH40bXdtqrJqzYvJzK3xh3ZzBQYHY8uvv8I/MFDtnFwuh0gkgqihAaKGBshkTf/9yRvVVf2AaLytVdM2WkCxC0WVVCqFWCxu1o+2rbuk+TJuFbGChG4DFSMV/UZ2UKsb2smLeewVoFxrlX6rUOdzSMSP/jeqqq5WhHu3i5iyT6AL7J2UQezEF9m3df99o/oiUEKI8RntHVokaUBq3g1E+im+ZUQH9gCPy4NUppjT7RY2kKmbU5qBmjrNw/0ccDB/zCesY3fzk/HbxY24k3uNae+h10evQJ/IJx+pz8KGGv2V2qB1mzez1m9UVVbip82bsXvbNrUpjqmzZqkl4jKmxqNO61au1JmZ1NTGdJ+JEI+W5cEoqy3GzrNtZ2dMaWEV3H0U62YiuihGKnoNV45epCTkITLOF9Y2fHj6OaG6og7WKsm5Es9nmayvf275B29/MZYpP/1SL2xfcwYcLgcdu/kxx0sLq0yepIsQomDUr4JHEvYwgQaPy0PP8GG4lHoMnQN7s+5RcjxJ+2hGt9CBrLr/pJ3Elwff01rfyzlA67n2yMHREUEhyvnzyooKjOrXj7ULRFVElGmTSyUnJbHKvn5+Wmqax6iuzxokj0ZbCjTSbhYwgYZ3oGLEKTRKkWOiuqIOR3YnMvk2hk6Mxv30Etb1V09rn+oztKRLWagXipi0532ejMD2NWcweGwnZp0HAJz43XTpxgkhbEYNNOLTz0AiFTNJtJ6MfQaXUo9hpEqSLrlchnO3DmptIzqQnZBp6yndu0LcHbx1nm9vejfKrbHzhx+0BhkAEBwaauwusSQ1SiPu7eurpSYxlWtn7qHfCMX2VWsbPoIjPWD174jF7Wu5uH7+HqRSGXg8LuL6B8HZQ7lguLa6XuO2VWO6cCQVw57uDECRwrxDrA+enBrDnJdKZTi6J0nb5SbhERkL94jOrGMyqQR3/veLmXpEiOkYNdCQyWVIyLyAHmGDAQARvjGw5tsgJli55z017wZEEu33KRBYK7c+yuUyVAm1D39G+XVj7ltCFBqnEde1sNTB0RExXbsau0ssD0pLIZPJmEWo/QYPhqWlJUSi1pF18e+Uowj3im5RG6XVunNKtDYJf2dCLgezXXXO4qHMuTN/KXZ15GeWwz/MFZ5+TqyRg+y7unPdGMO+zVcwdGJnpr/PvtEfPkHK9Vwp1/O03qDNVHo8vwD+PQapHadAg7QHRl9Fd/j6L0ygweFw8froT1hbUI/oyZ2RX5bFPOZwuPBzC0FuqebV4y8/qX1Kpb1KucXe7tezb1+cPnZMY90PVq3SumvFmP4+fRoDhylSdPP5fPz3ww+xYvFivdd16NgRYrEY9+7eNVrfdp/72mhtt1ZSiQzVFUJma2lghDtz/NZVxbbVf07dhX+YKzhcDjPNAgA3L2WbvL/VFXXIzXgA/zBFcBHa0ZN1XlMmUEKI6Rj9UyUlNwH1IuWCw7jQfsxjiVSMeA03UVN1t4D9Qblo/BfMrdsfElg7YPWsXfB0al3z+61BcmIiqzx55kxEd2FvA+Ryufhy82YMGTHClF1jvDd/PivPxsSpU7Fh+3bWNtiHuFwupj3/PA5fuIDdBw9i1Lhxpuxqu5GZUqJ2LCfjAfP41B+ak7hdPm68oE+XAzviNR6vqaxHerLuXTCEEOMyyb7AS6nHMKTzBLXjCZkXINOzHfV2Tjxq6iqZKRF3R29sfPUYkrOvorq+DAFuEfB1DWaNkhAlmUyG5MREJrjgcrnYsW8fsjIykJ+bCy8fH/gFBsLS0lJPS8YjFArx7dq1mP/uu8yxPgMG4PyNG3hQUoL83FxYW1vDy9cXDo6OZhl1aW8SL2Qhtg97O/Tl48pEatUVdagqF7ISaolFEjwoYmeLNZXLx9Pw4nvDYGnNfku7eFR7sjtCiGmY5B370HXN85CHtRxXJZVJ8Nkf7Kx6PC4PscG90T9qNALcw5ggQywRISGj9WX2NLfXZs9WW/MQFBqKvoMGISQ8nBVkaJtWMbbtmzbhy5UrWanKeTwePLy80KV7d0RGR8PJ2ZmCDBP556T6yMTZ/eysmslX2dk/87PYd+Q1tSun2H2Wy4E/t/5jpt6w2bl5qR2TSSQaahLy+DHJu3beg0yU17AXidWLhEjJbdp9B9ILk/HezudQUql+62ZAkbTrbn4y3vhhPAoqsljH9RGr3PBKJKnXUdN0Gt9DpDlUpyAeqqqsxLjBg3HrhvYtfmUPHuC12bPxxy/s4E9Yw84tImrQvnBXl6Ys7tyxeTOeGjAA6WlpWhN8AYrkXznZ2diyYQN2tqKcG4+T6oo61u6Ryge1qK1m/32c3seePrl1TXsa+If3RGmuhoamfxif2neTVc7LLENNZev4m3byV9/NlXZ8nxl6QojpceIi47S/ozdDRYNpkuEEeoQj2CMKAe6hKK0qwo3sy1oXhxJ1QaGh6NG7NzrFxkIiFuPcqVO4ePYsJK3s2xWXy0VEVBS69eqFjjExaKivR/a9e7h39y6uXbmi9e6upP16ZflwZlsuAGz+5KTWm7eZkkdULJ7+5g/WMZlEgq3jYiFpoDvJksdfm8vdnF18F9nF5llw9jjIyshAVkYGfvv5Z3N3RSeZTIaUW7fUds0QogmHy0GvoeFMWSKWtoogAwA6PKl+B+DbB3dRkEHaDZrwJoS0eTMXDIAFX7kgPP5s67kFu183dtI8qUSMi999bKbeEGJ6bW5EgxBCHgqO9MCEF3qiS79g1vHd6/82U4/UOfj4s8o3ft9CC0FJu0KBBiGkzVmx/VkmkVhjl0+kobyk1sQ90szCygZlWWmwsFTkhBHX1eKfLWvN3CtCTIsCDUJIm+PgrJ7MDQBuXM7Gt0uPmrg32kka6vDbi6PN3Q1CzIoCDUJIm9NQL8HDHdASsQT5WeWIP5OBv368at6OEULUtLntrYQQQghpO2jXCSGEEEKMhgINQgghhBgNBRqEEEIIMRoKNAghhBBiNBRoEEIIIcRoKNAghBBCiNFQoEEIIYQQo6FAgxBCCCFGQ4EGIYQQQoyGAg1CCCGEGA0FGoQQQggxGgo0CCGEEGI0FGgQQgghxGgo0CCEEEKI0ViYuwOEkLZn7GAOfN2lAID9Z3jIL5E36ToXRw6mPKm47kEVF78dNVoXDYrLAWaOAbpEiuDpIoWLowS21hLsPeGE9bs45u4eIa0aBRqEkGbpGMrBV//NYsoJqUHIL2natc72wDtzcphy0YMgnItvWpBiLrPGAu+9mA9LS7HauZgIGwDWpu8UIW2IWQKNwdHjEOXXBd7OQRBYOzDH5XI53t422Rxdaree6j4TPcIGAwByStOx5cQq83aoDXJwC0SHntPh5BUGeyc/cHjKP6uUyz/j1vmtZuyd4X2zuIJ5nJHjiCs3mh4oZOTKkXDHFXFRDwAAn79Vip7TXQ3eR0PxdOVg2avZ4HI0v8bKGp6Je0RI22PSQMPPLQSLn14PZ4G7KZ+W6NAjbDAifDoDAFztPczcm7an55gl6DTgBa3nXbyjTNgb4xs7mIMgX2Wg8e5XzgCaNyKxcK09Tv6gCDTcnGvw8jMu2LS3dU4/vDpFwgoyyivt8NXPbkhKBfKKgbJKM3aOkDbCpIHGovFfUJDxCIZ2nogp/eYCAGrqK7Fw2xQz94gAgF/kEJ1BxuPow1eLmMdpWc64dqv50x6ZeXJcTXZHj2jFfMubz+Xih33+kLXCGZTosHpWefx8d+QWtcKOEtKKmSzQ6B46CO6O3ky5vKYUv1/ajILybIilIlN1o03ycwuCg60TAMDexkFPbWIqfSeuYJXT/vkFOSmnUFelXLBQW1Vo6m4ZzbDeHDg51DHl9bse/f/iqi122LtO8XuyspJh+lPAzoMt7qLB+XkKmcdCIZ+CDEIegckCjSj/OFZ58c6ZqBKWm+rpiRaXUo+jrFrxLTWvPNvMvWlbbB29mMeZSQdwYe97ZuyN8b05o5p5LBLxcej8o7eVkCJHVY01HASKEYOXnynHzoPOLe2iwfEtlFM6tfW0dp6QR2Gyvxxvp0DmcU1dJQUZrcTRhD04mrDH3N1oc2zs3cDhKNPQ5KW14FO3DXBx5CAqpIwpn7ve8gWcRy64YsqIPACAn1cVwgJckH6/9Y4YSCQUaBDyKEyWsMvRzoV5LBTVmOppHwmPawELHt+gbVrzbcBB61zwZkg8Ls/gr5MDDiz5rWsLoa2DF6tcV/3AIO1yuDxwuAbcycDhgGuA9l6ZLAWHqwwCvtvT8n+Pb3az/8b+b2pDi9skhLQ+RgnRh8VMRL/Ikaxjvi5BzGMXgQeWTdmo8dqPfn1F7djg6HHoFT4MAFBVV4bvjnyo9bn7Ro7AgKjRAICiyhxsO/W5zv5V1JZi/f+WIMA9DDMHLkCkXxcmyBA21CCrKBXfHF6GitpSHa9YXa+IYegfORJ+biFwtfdk2qwXCVFQfh8H4nfiSuoJyBut2I/0i8OUvnNZx0I8I5nHHA5X6+8uqyQNO06v1donP7cQTOkzV+v53PJM/Pr3d3pfmyobSztMH/g6wryi4e3sD0u+NeRyGSqF5cgpzcDZWwdxMUV3VqZQ706YMeANpvzlwXchk0kxc9B89IwYBmu+DQBALBGhsELxb3on93qz+tkSXC4PI1/+mXXM0saeVe4x5j3EDFH/v3v32j7cvfqrzvZjhrwK/6ihcPQIg5WNIwBAVF+NyuK7yEs7j8ST30Aukza5v0GdRyCi57Nw9opiRl4k4jrUPMhGSc4NXD20Cg3CCv0NqRjYtZZ5LJNzkJDS8pGH3CI5Ghq4sLKSAQB6RtcAcNF9ESGkzTFKoNHRrysi/bpof1IeX+f5xjoH9EBscG8AgEhcrzPQGBI9Dp0CugMAauqiNAYaqv0Tievh7xaKT2bsAK/RNz9bKwE6BnTDVy/8gU9++z+kFdzQ21eBtQPeHLsaUf5dNZ63trRFsGck3njqYwifeBcvbhjGOu/tHKj3d6PtvJuDl85AI9SzE7qHD9J6Prg6slmBRphXNN6b9DWsLW1ZxzkcLpzsXOFk54rOgT3RO3wY1h9aAolUPeERAHg4+LJek7PADe9MWKe2Q4lvYQl/t1AsnfIddpxehyMJvzS5ry3C4cIzuKfOKk4eoQBC1Y5Xl+VoDTRsBK4Y9fIuOHqGq52ztLaHe0BXuAd0RVjcRBza+CxqK3UvLOVyeeg/ZQ1C4yaonbPg28DJKxJOXpEI7jIWJ7e9hPz0izrbUxXiV8U8LioRNPk6fbILHBERpJhG9XKrAZfj0qp2n3A4MnN3gZA2r1Xd60QuN/0ftSXfGiumbVULMlTxLSzx+piP9bYV5NkB375ySGuQ0ZitleHesAFAJDHd0HNccH98NH2LWpChSffwQVg3Z2+Tp1Ten/Sd3m3Qzw2eb/DfnzGI6jVPE9oIXDF58d8ag4zGBK4BmPTueQicfXXWm7DgkMYgozELvg1GvLQTIXHj9dYFgLAADvh8CVNOTrdr0nVNce22si0OV46BPVrX9KKdjTI4bk0BECFtiVFGNLacXI1fLnzLOvbOhHXwdQ0GAFQJK7B09/Nq1zWI69SOmYIl3xpSmRTbT6/FtYxzEEtF6Bc5ErMGL2AW/LnaeyLKrxvu5F7T2s6bY1az1nZIpGLsOv8NbmRdQn5ZNmytBAj3jsETMRPRLWygxjYupBxB8v0rrGOT+ryMAR0V00FyuQwLtj6t8drqOt3Zg66mn0Zu2T3WsblPLmX+XZrjxeHvsspFFbnYdOxTpOUnwd7GCX06DMfMQW+wfn9DYybg5I0/9LZtZ62YljiS8AtO3fwLxZX5iPLtitefWsEEFxwOF5P6vIQdZ9Y1u+/NJZOK8duqAaxjLj5RGDZrE1O+9Ocy5KacVrtWWFWkdgwAeoxZAp6FFVOWShpwfs8i5KadAeQy+IT3x4Apa8G3UnwQc7k89Jn4EY5v1Zy3I7jzaLWg5fqxtUiP34u66hK4B3ZF3wkfwslLOQ3Xe/xy3EvcD8h1f4J2i2KfT0y10lKz+eJv8zBttLIcGy7DmX9aR7Dh5cYOsApLDfe6CWlPjBJoCBtqIGxgf5NT/bZdL65FSWWBMZ76kUhlUizcNhlFFXnMsaMJe1BbX415oz5gjg2OfkproDE8dlKjPCEleH/XbJTXKHMqCBtqkJR1EUlZF9EpoAemD3hNrR2RuF7td1PbUMUqP+rvTthQg4yCW43abv7C3F4Rw1gjDvll2Xj3pxnM1EhFbSkOX9+NrOI0LJ2iDDif7f9/OHXjT7V1KZpsOPQBLqQcYcpJWRexcNtUfPvK/5hjPcKHmCTQAICa8jxW2cqWvRWzpixPrY42NgJXhHQZx5Slkgb8sXY4qstymWPZyfZ4np8AACAASURBVMdQcn8onl54igk2/DoMgb2LH6veQz3HLmWVT+54GfdvnWDKRZlX8edXYzHm/36Hm1+s4jXYOCKy13SkXGavP2nM25090lhomHWvAICCEnZQ4eUmRWu5BdO6RbWsckKKjZl6Qkjb1qqmTszl79uHWEHGQxfuHIZYokwm5irwUqvz0IyBr7PKq/9YwAoyGrt1/yqW/PyfR+it+U3q8xKrvOnoxxrXX9zJvYaU3ESmbGdtjx7hQ/S2X1pVyAoyHqqoLUVa/k2mbG/t2JxutxoxQ+axtsbeubBDY/AgrCpB4sn1rGNxw99Uq+cV0gu2jp5MuaIwhRVkPCSXSXF+z9usY7FD1YPdxrzdGgUapYYbccgrZpfdnSWaKxqZnycH3aM5GN6Xg7eek+H8tjL0ilH+/YpEfHz5M93XhJBHQYEGgAPxP2k8LoccZTXKd0IXLfcCcbR1YW2/TMlNxP2SdMN2shVxVdnaWSUs17lI9o8rP7LKQZ4d9LZ/4sY+redySpW/19a25bWpnL0iWOWbZzXvIgKAlIs7WWuXGl8LAC4+HVnlG2c2qdV5qKL4HqpKs5iytb2bvu7CxZG946XEgClwih6wR7ecHcwTaBz5Ng+/rsnCxqVZeG16Dnw9FcnJZHIOklLdMfwVXwjraJEGIY+CAg0o1hdoU6mSWMzWyl5jnSAP9ofnpdTjhulYK/VwuykAZBal6Kx7OyeeVfZy9NPbfv6DLK3nSqrY00ZNWYza2tg5KRd1iuqrUV9bprWuRFzHSmlu46A+quboHsIqF2Rc0Pn8JTnKUSYulwe+le7fYX0D+23CztpwH7gCW/boSIPIPKMGPJ769mGphIe/r3tg4ed2yCmkIIOQR9XuAw2JVAypjhwFYpW1JVyO5iHjAHf2Irz8xziVt6uDJ6tcVluspaaCVCZh/X49nfQHGkWV2gM/1aksAOBy2t5/YRuVkTGRngW8AFBfq1wUYfXvPW9UOboFscrCat05X2or2MGag1uIlpoKRWXs37G3AW/y69uordIK8wQaZ695IjHFHen3nSCsU6wR4VlIMbBbEY5vzsLnb2vemk0I0a91rLoyI1kzEiFp4+caxCoXVtxvcZutlYcDO1Aoq9a+DuUhsaQBvH9HHpzs9A/Vm3KbrjlYWCqnfFSDCG3qVNb6cLk8cHkWkEmVUwyqoxwyqVjvLhJho3wcDi4BeJCXrLV+QQk70PBsefZxhlejXcyFpeZ5S5q7whKA5b8lR7wwUY73XsxhsqE+/UQ+fjkahPhkGtkgpLna3tdBPcyR5ru6jp1lsa0uUmyK2gb2N3BbK/05FXhc5YeHubYwtyaqWT75fP1TP/xGv2PVIAMAJCop/ZuSvpxvzc4/Ul+ve1TlXh77bSLUz3DrKDoEsBea5ha1jrekLX9w8MsRdt6S2eMe7wCYEGNpHX/VetRL6ptcV/WeKqaSVXyXVfZxaX5eiraioJw9WuMq0D+OzrewZB6XVOYbvE9tjWr6byuB/uEBa5VRIHFDrdr56gfKfxMOh6t3zYXAmT0qVVmse+HyhQQ55DJlAN81qul/j/r07cJu68iF1pFDAwA+/J4dtAV4i7TUJITo0iYCDdXpDdUPLU0cbc0QaJSkssph3tEm74OpiCUi1lZWDyd/nfXdGi1eLHiMp5WaqlYl2LK0cQS0rP15SHVNR121+pqYyhJ2EjZH9zCd7Tm4BrDKwkrNScUeEomB0grldE+Qj/51JU3VIUgZOAmFfBSXtZ6pCZEYzHoNAHCyp0CDkEfRJgIN1Z0GHA5Xa+ppR1sXCGxMP21RUMZe/PlEzERYWhgui2CVUPnGzuFwWbs+zKGmXplALMgjAgJrB611R3ebxioXlmtf6NleVJflMI+5XB6Co0dpresd2ps1QlFboT4iVFmSySp3GjBHa3s8Cyt4hvRmyuIGYZP6nJii/LuytZHAyb7lIw8WFoCTvfL5U7Ja35Rjg0j5d8xtPYMthLQpbSLQKG403D4sRnMK7mkD/s8U3VEjlUmReE95gyoLHh8zBs3Xe12viGF66wBAQaNdLB39ezSvgwZ2LeMcqzyh1/Ma61nw+Bgczb6fxpW7J43VrTYj/Ro7T0iXJ7QnzYobvoBVvntNPcdIbsppVq6NoM6jYKElGO3Y7z+s28bnpZ1tUp9/PszOWfL8+JYvon52JFi3nv/ztOHuoUIIaT3aRKCRUchOm/1M7xfg78a+U+b4ns9jYKcxpuwWy/fHPmRt4xwe+wzembBO41SPj0sgvnxhH+aP+bRJbeeVsb+xzh3xPgI99N+My1h2n/+G9cE2utsMjIibyqpjbWmLz2btZo2+/JN2Wme21PYiN+UMalTWVTh5ReKJ5zerTaEMnPo5666x9bVlyLiufq8YUX010v7Zw5S5PD6eWXRKbStsWLdn0H00+x41Vw581KQ+n4uXo6pGGWxMHt6828xrMmuMcqROLLbArv/pqEwIabPaxPbWksp8ZBWnIchDkRXRkm+NVc/tRH5ZNmobauDrEsTciMtcqoQV+OPyFkzq+zJzrEtIX2x97QyKK/KQW3YPjrau8HEOaPb0Tm7pPRSW58DLWbEeQmDjiJUzd0IiFUPYUAv8e++QzKIUrP5jgcY2Jvebiz4RT6gdV11D4WrviS9m/65WJy0/Cd8fXcGUhQ01OJX8F4Z1nsgc+8+QtzCx12xkFqXAwdYZ/m6hrBvMAcD2M9pvYd/eXNq/HMNnb2XK/lHDMPPDmyjLT4ZcLoOrb2e13SZX/7dSa3vxh1YhoudUJrW5raMnnl16FRWFqRBWF8HFuxNsHdgLd7OTj+hdn6Hq16PuePEZxbSPt0c1/DxdkVv0aGsq7O04CPVXBhrHLnm0yrujilTSZ9hYmydrKSFtXZsY0QCAn8+x7/nA4XDh6xqMCJ/OTJCRWZSCOznXzdE9AMC+y1vw87mvWd/2eVwevF0C0CNsMCJ8Oj/yGpJvDi9ltQsopiYcbJ3gYOsMB1tnnXdhDXbvAC9nf7WfxsGApjqhXp3U2tt+ai2uZ5xnHXOwdUZscB8Ee0aq3cV27V/v0GiGityUM4g/vJp1jG9lC8/gnvAK6a0WZNw48z3Sr+3V2p6ovhrHfpgFqWqCOS4PLj4d4ddhiFqQUXjvMs7/urBZfV6/i8fafTJ/xqMnsZo3VcqaNlm9Vfcib3N5oLIIVmBDSbsIeRQmCzQaxMptbI2zOzbFrftXseLXeVqvzSxKwfI9L0Gm8mEslmquWy95tFwO2tpT9b/4nViw9Wm99zrJe5CJrw6+1+Tnvld4B6//MB4XU46hSlihMZupsRJdaWpXIhXj878WYvPxlRpvqPZQflk25m+ZiGsZ2tcC1IuatiBRE4nMPN8yJSL2NlOJWH3bqT43z2zEga8n6ExBLqqvxpFN03Ht8Gd628tPv4hfP+2HsvxbWuvIZFL8c/ATHN44vckLQR+qEcpx9KJyBGz84CJYPUJ8wOUAs8YqF3hfu+X2yCMjxpZXrAyYLfgSvDatdfaTkNaMExcZZ5C/nIqGls/ZNgXfwhKhXp3QwScWjnYuKK7Ix43sS8gva31pv7n/jrqEenVCgHsYauoqkVN6D/eKb+NBVdOHrNsCVwdPdPDpglCvKFQJK5CWfwMZhbce+yyfhmJp4wCPgG7wCIoDh8NDSU4CijLjWTk3moPL48PdPxYegV1h6+CF0twbKM6O13iX2OawteEgcU8uLPiKAO+Xw354b33z0oa/9ZwMr01XTMHIZRz0nRWodnO11mL0AOCb99jvLVU11igpt0JVjQX2nxFg+34zdY6QNqLNBRqEEPN6+z8y/N+zikBBKuEhZpI/6hqa9jbC4wLJ+3JgZaUYedx73BeLvmjdS8WOb6pgrSdRdeqKJ15c3jbvIkyIqbSZNRqEkNZh7XYuMnOdUVltjZo6PrpENv3afl05qBdZorLaGgXF9ljydesOMgBgzGtO2P6XH4RCvv7KhBA1NKJBCCFNZMkHArw5cHIAbK3kyMzj0C3kCdGj9X+dIISQVkIkBtLvqwYWFGQQog9NnRBCCCHEaCjQIIQQQojRUKBBCCGEEKOhQIMQQgghRkOBBiGEEEKMhgINQgghhBgNBRqEEEIIMRoKNAghhBBiNBRoEEIIIcRoDJYZ1MXfH2KxGHV1j3YLdmOTVGq+KRIhhBBCjIdGNAghhBBiNBRoEEIIIcRoKNAghBBCiNFQoEEIIYQQo6FAgxBCCCFGQ4EGIYQQQoyGAg1CCCGEGA0FGoQQQggxGgo0CCGEEGI0BssMSggh2oxeuRXWAkemfPzTBaguyGHKbmEdMXD+CqZcnnsPp1cveuTnGzurGyK6+MLD1wE2dpbMcblcjvljf3zkds2l98vvwqdzD6Z8888duHvyL1ad8V/sBo+veK1SmQQHFz4HqVhk0n4SogkFGoQQo/PrNgBcHo8pC9y8WIGGo28QPDrGMWWX0MhHCjRCO3ri7XXjIHCwblmHW5nAPsPgHBDKlL3v3VELNLxje7HKts5uqC7ON0n/CNGFpk4IIY+NNz8f89gFGYS0dTSiQQh5LAwa1wkOzrZMuba6Hod3JSAn/QFEDRIz9oyQ9o0CDULIY6FjV19WecnMXSgrrjVTbwghD9HUCSHkseDh58Q8rq8TU5BBSCtBgYYR8bgW4FtY6q/YQtZ8G6M/R3NwuVzYCQQGaUdgb2+AHgG2trZaz7W0r4bqI2kZgaMV87ihTmywdi34PP2VzNgeIa1du5o64XK4eGvcGthaKT5YLqWdwPHE3/Re1z9qNIZ2Hs+Uvzq4GJXCMlYdS741eoUPw4CoUQhwD4edtT14XMUbSr24DiWV+cguScWxhH1IL7zZ5D6PiJuKXuFDAQBlNcX45tBS8LgWGNn1WYzuOg1Odi7gcBTxYr1IiKvpp7Hr3Ddq/TOkXv364e3332fKr8+eDYlEgmWrV6NXv36wtFQEVxKJBCVFRVjz0Uc4c/y4zja5XC6eGD0aE6ZMQVR0NOwEAlhYKP57SqVSVJSVISc7GyeOHMGurVu1tvP0tGl4dtYsAMDtmzdRWlKCqc89BzuBABKJBOmpqfi///wHtbW1+P6nn9AxJgaWlpYQi8W4lZSEF6dNg0wq1dnXHn36YM68eQgODYWruzt4PB5kMhnKy8qQmZ6OVR98gHt37zbpd0kezfjZPdBzWDjrmKunMuATOFrjk53TNV67ZOYunW2HdvLE5Hl94RvoDAdnW3C4HMhlclRV1KEguxx//vAPbl/PbXJfDd2eMXR++nl0GDGJdayhugIHFs40U4/I46RdBRoyuQwdfGNhZ614Q/J3C21SoDG1/1y42nsCAMQSkdqHeIhXFD6evk3r9dZ8G/i7hcLfLRT9o0Zjz9/f4a9/tNdXFe3fHZF+XQAoAhZbKwFWPfcz3By81J/H0hYDOj6FSN+umL9lQpPafxRBoaEI69CBKXv7+WHdpk1wdHJi1bOwsIC3ry++2LgRWzZswIa1a7W2eenOHfD5fI3neDweXN3d4eruji7du2PkmDF4cdo0iBoa1OrGxMUxfVPt48P+RHbqhK2//YY6oRCRnTox5/h8Prp0745tv/+OWRMnau3nslWrMGHKFLXjXC4Xrm5ucHVzw6+HD+OLTz7Brh/bXr6GtiKyqy/8Q121nufxuDrPazPxhZ6Y8EIvcDjs4xwuB44utnB0scW7Gybi8K4E7P76b5O3ZyzenXvALayj2Z6fPN7aVaABAOfvHMLIuKkAADtre4R4ReFe4R2t9T2dfJkgAwCupp9Rq2NloX3qQi6XMSMOD03t/yoifbtg9R8Lmtl74JMZ2zUGGao4jd/VjGzDtm2w0TE1AQBz5s3Drh9/RHmZ5pGWh6MXjcnlcrXXE92lC05evYqxgwahory82f0NDA7Wei46NhZ2AgFqa2pYx7k8Hg6ePQsvHx+97XO5XCxcuhSe3t5Y9+mnze5fcwhsHOHnGtLidu7m34BUpnsk53Egl2s/N/fDJ9H3yQ7aK6gYNT0OviEu+PzN/SZrj5C2qt0FGkcT9jCBBgCMjJuCbw9/qLX+iC7sb6+Hrusedk3Lu4ETN/YhqyQVBWXZkMqkEFg7YGjMREzq8xIseIpv7bHBfRDhHYO0ghtN7rs13wbWTn4AAKlMinO3DiAtPxkF5ffh7RyA2KDe6N3hiSa3ZygPg4yjBw7g561bkZmRgYFDh2LpypWwtlEEYRwOBwuXLcOSBbqDqwelpfhzzx7EX76M5KQk1NbUwE4gwIixY/Hm4sXMego7gQALFi/G8nfe0dne8UOH8N/XXsOTY8Zg1fr1rHOnjx3Donnz0H/IEHy5eTNzfMzTT2PPjh2suu8uX84KMuRyOfbs2IGff/wReffvwz8wEC++9hrGPvMMU2fGnDnYtXUrigoLdfaxJWYNfhP9o0a1uJ15G59CRW2pAXqkWcX9dAg8lbtCRHXsQK48Kw0N1ZXg/JvUS1hWrLO9b5cehYMzO8BfuG4cM31SLxThwxfVRyuFNeqjYADg4mGHPsPZQUFKQh5+//4S0m4UILSjJya82AuxfQKZ8zG9A+Eb7IK8TPXg2dDtFd9JgJ2b8gtPbXGBWp3qojxY2Suzr1JWUNJacOIi43TE+E3H9bCHWCxGXV2dIZozOEllJfN4/Yt/MaMC9eI6zPl6sNbrvp97FA62iimB2vpqvPSt+ge5l7M/RsRNxV9Xtul8s47wicXyZzcx5eTsq/h072s6+/32uDXoFjaQdayksgAf/fYKHlQVqdV3d/RGbFBfnEjaq7Pdlpg6axb+u3w569jnK1aoTRX4+Pnh4LlzTLmyvBxDunXT2ObXW7di28aNuHblitbndXR2xvErV5jRD5FIhN6Rkaw6yz/7DOMmKeeaB8TEMKMTp69fZ03v9I+OhlAoVJy7dg2Ozs4AlMHJQ24eHjhy8SK4XMXIlFQqxdTRozWuw2gc0CQnJemcimmpeaOWt4lAwxTW/PYcPP/deVJZJsTrT21p8rWLvhqPzj0DmHL82Qysf/eQWr057w7F4PHKKbeMW0X48MVfjd6esT35wQaEDFT/f/T9sJaPlhHSLnednLqpTN1rzbdBlJ/mDz9/t1AmyAAU0y6aFJbnYPupz/W+UaflJ6Gg7D5TDnAPa063ASimYpbs+o/GIANQBCHGDDI0qSgv17geIT83F5np6UzZVsfujtfnzNEZZACKQOX00aNM2dLSUueOj/q6OtYUSO595e++TihkggwAyFE55+Co/FYIACvWrmWCDABYuXSp1sWexw4eRHJiIlPuFBOj6yW1mFgqhlwuM8hPe8XhchDdQxkUyGVyfLfsmMa6P352GhKxcooptJMnbAVWrDqGbo+Qtq7dTZ0AwIkbezGl3ytMeWTXKbiTe02t3siuU1nlowl7WvzceQ8y4e2ieBOysbRr9vVnkvejpq5Sf0UTOvTnn1rPZWVkIDhMEVBpW+zZHLdv3sTwp55iyv6BgbiTnKyxrkjEHjoW1irzKjReSFqnEnQ03u7aoaNykZyooQH7fvlFZx93bt3KjGpwOBxEx8YiOSlJ5zWPavOxT7D52CdGabu98PZ3Yi3WvJOYB7FIcyZRuUyOhAuZ6DFY+SUhqIM7bl9T7hoxdHumkJ94GW7h0SZ9TtJ+tMtAo6auEvdL0pkRhbjgfuCAAznYs0h9IoYzj0urClFUkae37e6hgzCo0xi4OXjDWeAGG0s71mLGh1teAYDLbf5++uM39jX7GmNLT03Veq4gn31TJwdHR1RVag+UunTrhpfeeAPePj5wdnGBrUDAGk1ovDDU1k57sCYWs3Mp1NfXN+mcoFGgYe/gwDy2tLLClUavt3GfGpf7DhpktECDtFxAhDurnJqg++/81tUcVmAQEO7GCgwM3Z4pJP/1E5L/+smkz0naj3YZaADA8aTf8cIT7wIALHh8xIX0x/V755nzEd4xsLZU7qRQnW7RpEfYEMwetghOdk3fUsd9hN0h+WXZzb7G2O6pTI801tBo5EA1aFAVHRuLT778Ev6BgRrPa2Nlrf0GWpLGwYTK+qHGox0NKoEG31KZZM3R2Rk8HjsgbO7IjLOLS7PqE9PyC2H/+xTn6R4xLMphn/cJYl9v6PYIaeva5RoNADh/+xBrXnp4LDtZjerOFEAx3aJN15CBeHPcKo1BhlQmRb1IyPy0ZC5cKpNCJK7XX9HEVKcdHkVgcDC2/PqrxiBDLpdDJBJB1NAAUUMDZLKm//7kjfcyqpQbn5NradfL21utTbFY3KyfxsEWaV08/Nhrckryq3XWL86rYpXdvNnrhAzdHiFtXbsd0RBJGpCad4NJhhUd2AM8Lo/JJaC60yOnNEPruggOOJg/hj1Hfjc/Gb9d3Ig7udfUchO8PnoF+kQ++Uh9Fksfz+1q6zZvZo0SVFVW4qfNm7F72zbWgk1A844XY2o8xRJ/+TJemTHDZM+vT1xwfwwwwK6TTSc+Qb2oZQFjW1VbxQ4E7ex1L8YUOLDPN94ya+j2CGnr2m2gAQBHEvYwgQaPy0PP8GG4lHoMnQN7s+5RclzHLo5uoQNZdf9JO4kvD76ntb6Xc4DWc+2Rg6MjgkKUW+gqKyowql8/1jSHqoioKFN1DQBw7+5dVtIwN3d3PVeYVp/IJ9A7suW5U3acXdduA438LHbeCk9/Ry01FbwC2BlwC7IrjNoeIW1duw404tPPQCIVM0m0nox9BpdSj2GkSpIuuVyGc7cOam0jOrAHq7z11Gc6n9PdwVvn+fam94ABrPLOH37QGmQAQHBoqLG7pKauro65KZtDozTrpO3LTmNvS/cN1r1GonFq88YJtgzdninYuXkiqO9wteOZ549AWN6286sQ82vXgYZMLkNC5gX0CBsMAIjwjYE13wYxwb2ZOql5NyCSaB/KFFgrv63I5TJUCbV/G4ny6waBje5vN+2N079Jsh7StbDUwdERMV27GrtLakqLixEQFAQAcHVzQ5fu3ZEYH2/yfmiSmHkJbvYtD15Fkta39sdUctLZH6TdB4diy6entNbvN4qdJC4rlZ3F1NDtmUJAryEYMP8jteMNVRVIP6P9ixYhTdGuAw0AOHz9FybQ4HC4eH30J6wtqEf05M7IL8tiHnM4XPi5hSC39J7Gui8/qX1Kpb1KuXWLVe7Zty9OH9Oc3OiDVau07loxpq3ffovlnylHqj5cswbjhwzRe52ziwsioqJw5cIFo/XtYspRXEw5qr8i0aquVoTKMiEcXRSjVnb21ojtE4SkS1lqdUM7esLZXbn9uV4oQuF99pcLQ7dHSFvXbnedPJSSm8Cam44L7cc8lkjFiNdwEzVVdwvYH5SLxn/B3Ib+IYG1A1bP2gXPf+9TQpRUs2gCwOSZMxHdpQvrGJfLxZebN2PIiBGm7Bpj/++/Izszkyn7Bwbi4LlzWm/O1mfgQOzavx8nrl7F/HffNVU3SQvsXs++c+qCNU+xUogDQFi0F5Z8/wzr2J9b/jFJe4S0Ze1+RAMALqUew5DO6rdVT8i8AJme7ai3c+JRU1fJTIm4O3pj46vHkJx9FdX1ZQhwi4CvazBrlIQoyWQyJCcmMsEFl8vFjn37kJWRgfzcXHj5+MAvMBCWKrktzOHtuXPx25EjzKJQHz8/7DtxApUVFcjLyYFEIlEkGXN1NUgGVGJaF4+mYtob/ZlRCB6Pi0VfjUdlmRAl+VVw87aHo4sdK+NnvVCEQ7sSTNIeIW1Zux/RAIBD1zWnlD6s5bgqqUyCz/54i3WMx+UhNrg3+keNRoB7GBNkiCUiJGQYbxi9rXpt9my1BFpBoaHoO2gQQsLDWUGGtmkVY7t39y7mzpzJuncKh8OBk7MzOsXEILZrV3h4eVGQ0YZ98upeVJWzd944utgiLNoLTq7soEBY04BP5uq+p5Ch2zMm5wDN912qKdafDZkQfSjQgOL+I+U17AVc9SIhUnKb9u0ivTAZ7+18DiWV6rduBhSJtu7mJ+ONH8ajoCKLdVyfBrFyB4ZUqvl+CaZWU607AZEujfNSAIq8GeMGD8atGze0Xlf24AFemz0bfzS6z4iwhn27cdX7mRja1UuXMKRrV5w4fFhv4rCK8nLs//13vP/WWzrrEcMRNSj/nlRvVNZUhfcr8MaYrUi8mIXGud5UpSTk4bXRW5B9V/duDEO3Z0z+PQepHasqzEXhbRphIS3XLm8Tb0yBHuEI9ohCgHsoSquKcCP7stbFoURdUGgoevTujU6xsZCIxTh36hQunj0LiaR1BFmqfP390b13b8R26wZLKyvkZGUhMyMDifHxKC4sNHf3SAtwuByEdvREpx7+8At1RUFWOZKv5iD9ZgFksua/ZRq6PUN7+dhdcBul2j+wcCbyEi6aqUfkcUKBBiGEtGNe0d0w4avfWMfK72dgz2z1vBqEPAqaOiGEkHYsYvjTasfOrnnHDD0hjysKNAghpB3z69afVS7NuE1rM4hB0fZWQghpx8rupbDuXnz6s0Vm7A15HNEaDUIIIYQYDU2dEEIIIcRoKNAghBBCiNFQoEEIIYQQo6FAgxBCCCFGQ4EGIYQQQoyGAg1CCCGEGA0FGoQQQggxGgo0CCGEEGI0FGgQQgghxGgo0CCEEEKI0VCgQQghhBCjoUCDEEIIIUZDgQYhhBBCjIYCDUIIIYQYDQUahBBCCDEaCjQIIYQQYjQW5u4AIYREu0TBydoFAHCj9AaqRNVm7lH70cE5Au427gCAW2W3UV5fbuYekccNBRqEELPysPXAFwM+Z8ovnppLgYYJPRU0EiMDRgAA4kuu472LS83cI/K4oUCDtAoLFi/G5BkztJ6/mZiIuTNnmrBHxuXmF4MnX9gGcDgazzfUlmPvmqGm7ZSZvB77KvP4QuEl3K/OMWNv2p9td3YygUZ3966Ice2MGw9umrlX5HFCazRIq9Cxc2fY2Npq/fH09jZ3Fw3K0SMUVrZOsLJx1PgjYuzjiwAAIABJREFUcPY1dxdNItolCr08ejLlH5J/NGNv2qey+jL8L+swU34zbj440BwAE/IoKNAgrUJdXR3kcjnr53EmEzdALpexftqj12NfYx6fK/gbebV5ZuxN+7UjZSfz2NfOG0P9B5uvM+SxQ1MnpFWY/8ILasdOXL0KF1dXM/TG+DJvHkLmu4dYx/pPWoXwHlPM1CPTC3MMRbBDEFP+/e4+83WmnStvqMClosvo49kbADA1fApO5pw2c6/I44JGNAghZvFM2ETmcYWoEinlqWbsDflf5hHmcZB9AIIdg83YG/I4oUCDEGJyNhY2GOw3kCkfyjqiozYxhfjiaxDJREz5mdAJZuwNeZxQoKGFwN4eXG7Lfz2WlpYG6A0bl8uFnUBgkLYsLS0N1hYAWFhYGOT3ZkwCe3tzd8F0OBxwuTyDtcXjWxukqUG+A8CDsl/H7h83SLsP2QkE4PJa/rotLS1hbWPT4na4XK7WdiwtLWFh8eiz2BYWFrC0snrk6x+SyWU4lXuGKQ/zHwKOll1RhDQHrdH416QZMzB6wgT4BwTAycUFvH/fpEQNDSgqLMTPW7fi959/hkyme9FedJcueH3RIoSEhcHZ1RVcLhcymQzlZWXIysjApvXrcfXSJZ1t9OrXD2+//z5Tfn32bEgkEixbvRq9+vVjgheJRIKSoiKs+egjnDnetDdqgb09Fq9Ygb4DB8JOIGDe4ORyOcRiMUqKinDm+HHs3rYN+bm5ettzdHbGsk8/RUTHjvDw8gKfz4dcLkdNdTXy7t/HgX37sHvbtib1zVh69OmDOfPmITg0FK7u7uDxeMy/SWZ6OlZ98AHu3b1r1j4aUlDnEYjo+SycvaJgY+8GDocLibgONQ+yUZJzA1cPrUKDsKJJbfGtbNHjqSXwDukFe7cgcDhcNNRVouT+ddy5sBO5qafRe8KHsHPwAACkXvkFualn9bbbzaMr81gkEyG/tqBZr3Ht99/DPzAQAHD10iWs+egjPD1tGl5+/XW4e3oyH5DVVVVIvHYNb7/yCiQSic427QQCPP3ssxg1fjz8g4JgY2PDBM0ikQgPSkqQlZGBnVu34tK5c1rb2b53L2xsbQEA61evxltLliAgOBhcLhdlDx5g97Zt2LJhAyZMmYJX33wT7p6eAIDK8nKs/OADHDt4UGc/uTweFi1diq49e8LH3x92dnYAgPq6OhTm5+PUsWP4Zs2aJvwW1SWWJGFkwJMAAB54CHUIQXplRrPb6fz08+gwYhLrWEN1BQ4sfHy2qJOm48RFxhlkeT/Xwx5isRh1dXWGaM7gJJWVGo+7urnh2x07EB4ZqbeN+ro69O3USev5l994A6/Mn6/3W8COzZvx5cqVWs9PnTUL/12+nCnPmTIF6zZtgqOTk9ZrtmzYgA1r1+p83vGTJ2PpypVNGnGoKC/H0G7ddNbpM2AA1m3apPfbVGJ8POY+9xxEDQ16n1eV6mLQ7MxMTBw2rFnXA8CyVaswYYruBZYymQxffPIJdv1o3q2VqotBZVIxtr/XoVnXc7k89J+yBqFxuoe8JeI6nNz2EvLTL+qsZ+fohXHzD8LazkVrnZM7XsawWZuYcuKJ9Ug4/qXevv4++hc48BUjSzdKk7Hwwn/1XqPqbGIi7B0cAADpqak4euAA/m/hQq31K8rLMWXUKJQWF2s836NPH2z8+ecmP//ubduw5qOPNJ6LT09n/sbkcrnG94ONX32Fl994Q+2cXC7HC1OnIjE+XmPbkZ064bufftL5XgAo/l5mT5qEivLmZfn0sPXAzuHKv4Mtt7dhz93fmtUGADz5wQaEDByldvz7YSHNbou0fa17jNvIuvXqhSOXLjUpyACgcwj1ky+/xNwFC5o01DjrpZfwTTM+1DZs26b3jWXOvHlwdtH+gRASHq4xyJDL5RpHafh8vs7ne2riRGzYvr1JQ7ZdunfH0YsXTTqlwuXxcOjvv/UGGYBiWHvh0qV48733TNAz45mw4JDeIAMALPg2GPHSToTEjddax9bBHc+8c1pnkAEAQ5/7vtn9dLVxZYIMALjZwuRQgSEhOoMMAHBydsYHq1ZpPa9r+lDTVutpzz+PHX/8obdv2t4PtH0h4XA4eGHePI3XTJoxAz/v36/3vQAAAoODceTiRdj+O7LSVMXCYtY6ja7uXZp1PSGatOtAY/U33zBTJAAglUqx9bvvMGPcOHQNCcGw7t2xZMECJF67prMdTy8vjBw7lnXs2pUrmDN5MrqGhGDWxIm4cOYM63zfQYMQEh7epH4+HIY9euAAZk2ciAExMViyYAHqVUaPOBwOFi5bprWNJR9/zPqgT0lOxvSxY9EtNBTdw8IwMDYWr82ejSsXLuidHgKAhUvZaYoflJTg7blz0TsyEmMGDsSP33/PeoN2dHbGHC1voMbw7vLl8PLxYcpyuRy/bN+OsYMHo2tICMYPGYIDe/eyrpkxZw48vbxM1kdDCu48Go6e7P9P14+txa+f9sX2xeE49P1UVBSmsM73Hr9ca2bSHk8tAc9CGUSKG4Q49dNc/PR+J+z+qDuuHlKMyHE4zX8L8bfzY5UzqjKb3Yaqh0FxbU0NPli0CEO6dcOkESNw7uRJVr0+/04X6nPv7l18/vHHmDVxInpGRKBbaCiG9+yJXT/+CKlUytSLjo1F30GDdLYlkUgwcdgw9I6MRF5Ojtq5KSNHont4OLIzlb+DmK5dGzcDW1tbLFq2jBWcFBUU4I05c9A7MhK9o6Lw9ty5qKxQTolZWlnh06++0vt6G8uqus889rP301GTkKZpt4HGK/Pns3I0VFZUYMKwYfhmzRrcSU4GAJSXleHw/v2YM3kyFr76KnKyszW2tWz1atYbwOmjR/HStGlMgJKclITX58zBvt27WdctX726yf39fMUKLJ4/H8lJSaitqcHh/fsxacQIVp2+AwZovT4wRDlkWVlejunjxiHl1i3mWE11NS6ePYtXn3sOg7p0wUodQcukGTNY36qKCwvx1MCBOH3sGEQiEfJzc/H1Z59h4auvsq6bPXeuSUY13Dw88PS0aUxZKpVi8siR+OzDD5F3X/EmmpOdjQ8WLcK7b7zB1ONyuVjz3XdG758x9BzLDvxO7ngZSSc3oLayEDKZFEWZV/HnV2NRmpvE1LGycURkr+lqbVnZOiI4dgxTlojrsG/tMGQnH4NEXIf62jIkn92M0zsfLXB0tmZ/I69qqHqkdlRVlpdjRO/eOLB3LyrLy3Hv7l0seOklxF++zNThcrkYPnq0xusL8vJw/NAhjBk4EJNGjMCurVuRnJTErOt4UFqKz1eswJsvvcS67jU9Iynxly8jOzMTIpEI2zdtYp27evEi0tPSIJNKsX3jRub4wykhVSu++II1ynj+1CmM6tcPf585A5FIBFFDA04fO4bhPXvi/9m77/CoqvQP4N+Z9ElvhJACSQg1JHQIoSOCyCKIBkXXFVcFWWxYWAtIUbEr7o9dRaVYEBFYQRYkFBFEeq+BQGjpvU0ykym/P2LuzJ2STJK5k0C+n+fheebce+bOSZjMvPeU9+RkGea7DB01Cp27dauzjaaK1YZgxdfVvC1EDdVqAw3Tu+vnn3hC+BKyZNe2bbhnxAiz43K5HAMHDxbKOp0Orzz3nMVrvD13Lqqrq4VyXM+eNq2AKC4qsjh/IPPmTaSnpQllRR13a8ZdqFVVVXW+XkV5Obb89JPV86ZduwtfecXi/ItfU1KQlmrIjeChUGDilCl1vrY9LPrwQ1FAs3juXKuTPVM2b8aZEyeEcvf4eMnbZ29towdA4RsilIuzL+D62R1m9fQ6Lfb+8ILoWMLIWWb1egybIeqpOLPnKyhLcszqXT39C8qL6p8wbCrA3V9ULlFbnj/VEB8vXgylUml23HQuVGSHDhafn3ruHObMmlXvBOjfd+9GXo7hd1E7IdWak0a9oaYTSI8dOiQ8PvSHeL6M8Wq1Nm3bYvjo0UK5uKgIzz/5pMXX02g0eMYk+d1fH3+8zjaaKlEZ/j9c5a5MR05N1ioDjbbt2onuDtJSU+sdHrEmMipK1Jtx9OBBq5MedTqdWXdu17i4el+jri/9q5cNM8LrmlehMxrGCAkNRfuoxifj8TfqCaooL8cfv1lfZfDl0qWiclxCQqNf11bGd3BqlQob1qyps/63y5cLj2UymUPaaE8B7cR3rKd2L7NSEyjOvYLS/KtC2d07yKxOULj4PXl275dWr3fhgO0TKGv5uIjvksuryxt8DWMajQab1q2zeO7cafH8j7DIyCa9FgDREIibe93LfQvz84XHRQUFonMFRueKCwtF54LatBEeDxw8WPQZ8+O339Y5vHnpwgXRpFdbPmOMlVWLd871dPVs0PMBIPPEAZRm3TD7R61Tq1ze2tNkNcXOXxqfLKhT166isvFdiiUH9+3DqLFjhXJs1671Lnc17hUwlZWZKSr7+Pqi1MIKm8wbN9Cxs2EVw/rt23Fw3z78smkTdm7davFu0Brju630y3UvfdudkiIqh0VE2Pw6jWXc9ezq5oaDJr8/00l4puVBw4bhzMmTuFX4Botn8mdd3ldn/bwbJ+AT1AFAzUoVFzcFqlWG/39PP8PcFnVVGdSV1oc28q4fb3B7VTpxIO7q1LQcEBVldW8pr9FohGXctqS0n5icjAn334/gNm3g5+8PN3d30XvEuLesvqHAcqO2mf6NVZSXWz0XEBQk9K50Nwl8H581C4/OmCGULU0qNc7LERrWsA363OTi/w+VpmGrxQDgzMZvcGbjNw1+Ht2eWmWgYfqHe+nCBSs16xfbWbwE8WYdwy8AcOPqVVE5Oiam3te4YjQ8Ykpl0nti7YPvjZdewnebNonqJQ4ZgsQhQ7Dg/fdRUV6OS6mpWPfdd/hl0yard0ymPSEFeXl1tl2tVkOn0wntMp6gKQVff3/RBF+g/hU0pupavdMS+f4ZNNRSluVbrvinimJxzgqfoGgUZJwRyh7ehrtpdUXdyyPLixq+CVqRSpzDw8fVG1kNzKMhul49SziN38um7w1j9z7wAJ795z8tzpGwpr5VZnUt9y8vt96TU5sbAwCiO3Y0e82GvKddGpg00M/dV3ishRbVuuo6ahPVr1UOnXSIFt8BXr54sdHXCjfpijWdWW7KNBBpZ8MdfmUDehusOX/mDOa+8ILVpEWeXl7o2acP3vzoI+w4fBgdrARApitljMerrdEYzUuxZWleU7Q12U6+NhFZQ/6ZBm8tnYePYaWMTlsN1LPzrbIkW1T2CRC/h51dDcu4VVV1J/ZSllrOS1GXYpNr+rr6WqlpG+P3V2NNuO8+vP722xaDDJ1OB7VKJfxryM7C2jqShOmMVrDUxTQ4b+j7ub45WaZ8XAz/HxXVTf/sIWqVPRqmSWwCgoJEy8saorRU3K3s41v3h6bp+bLSps+4t9X//vtfbN+yBVOnTcOEyZMRFhlp8c7Iz98fqzdtwtCEBLPAxHScua4JqLWMU0E3NGlXQ1WbfOkcOXAA0x96SNLXbG4ateHOWGZDunEXd/H/WVWVeKhNo66Ci1vN5GEXt7rv7j28Gr67bm6VuBcsxLONlZqOIZfL8frbb4uOXb18Gf/5+GP8mpJi9jfw2bffov+gQQ5rX4VJz8eovn1FQzL21kZh+P8orGpYwi8iS1plj8Z5o2WdQE22vcYyXc1Q3yx006GHq/XMcbA3tUqFlZ99hntHj8aAzp3xl+HDsfKzz1BoEkC4e3jg6ZdfNnv+hXPnROU2ISFmdUwZjxfnWcnMaC9XLl0S3XEGBQdL+notQVmBoZdMJpMLQYI1Xv7i3AglueKhOVW5YejFzVO8QsT8Wg0b/weAqyXXoIXhbr57QMOWX9rbhPvuE71Hjxw4gHtHj8b2LVss9gA2dM5DU5l+RlhbOWMPHs7uCPEw/M2cKThTR20i27TKQOPUsWOisunk0IZINfnijenUqc76HU2ykF5u5j02Mq5fx6fvvYc7+vXD2m+/FZ3r1a+fWf2qykpR0qLQeuZcmA7B1De0ZMy4a9m9ntn9xozHxX0kGKr5+8+nMWPnFbN/Xe6qPwtpXTRGk+5s6ZmoVZJ3RVT2De5opWYNn0DxUInp0tWyYsMST1d3bzi7WM+IGxjew9ZmCrR6LS4WGYKb7gGND/TtwTTp1uuzZ9dZP9DBwatpcG9tWNMeOvmJ55wdyzthpWbdPINC0H3Cw2b/FP7mq5zo9tcqA40LZ8RR+sixYxucqreW6UTSkSZJtEyNnzRJVE416V1pTu/Mmyca2ghuY7lLW1lRITwOi4xEYJD1D4/pRgmxAODalStWaprLN5poWt+QlOh5Rr0mgUFB6Nm3r83PtYXcyuQ6WROTkZXmG4bvZDI53BS2/cwleeJhv+5DHrNa18nZDSHRA4Wy8WqTWkVZhjlLMpkcXZMesXq9rgMbt0nWsVxDsB/iEQwPZ/vsCtsYxvMy9Ho9crOzrdYdceedjf6saKyTJkvvraUot4cegeLepRP5jVt9FTlgBIY8u9DsX7uEgfU/mW47rTLQ0Gg0oiRNTk5OWPDBB/U+734LY/0V5eWi9fA+vr4YPHy4xefHJSSgjVGK64qKikbPDWkoWxKDOTs7w9lozobp0tlaR0yW4z73yisW67m6uWGESeD104+2b9BkPHHWQ6GwOWBY/u9/i8oLbNzJ0j8gAAOSkmxun70V54q7yLsOsv4Fb+zmhV+h1xtWVnTocZfVXohuSX8TbRufcdE8B8rp38TZUXsMn2E2rwMAQqL6wcdkaa2t9maJl+AObDugUdexB+O/QZlMhrie1vf3eHXRIkc0SeT44cOioc2ojh2RWEcWYGNDR41q0Db3Q8OGCo+vll1HubppOU6IgFYaaADAizNnipa9jRo7Fl9v2GDxj7JrXBy2HzqEV6x8yHz05pui8sdffGH2QRDfuze+WrtWdGxZI/YhaKzfTpzAtv378eiMGaLx6Fqubm5YsW6daHnsicOHLV5r0auviuZB3D1pEmaadDf7+Ppi82+/iXJuHD14sM7sq6a2/fyzqPx/K1eiz4D6v5A2rVsn+vKIaN8em/fssZqkLHHoUKzetAk7Dh/Gs//8p83ts7e8a8eg0xmGixJGPYPonhNEgYEl6qoyXDz0g1CWO7lg8ku74KYQDxt17DMZfceJf76DP5vvQKoszcP1c9uFspuHLya/9Cv8Q/4cFpTJENl1FMY+udrmn83UlZJ0XC83DNHc3d5yanBHMM1988kXX5gtcQ4MCsL/9u51+LBJrVdMegb/tWIFZr30ksW6Xt7eeGnePOw9fRqffPGFzfv3tPUMQQdvw7Dahsv1bxpHZItWueoEqNmfY93q1Uh+2ND1G9ezJ34/fRoFeXm4ef06/Pz9EdKuXb1dpVs3bcLs118XhhCcnJywdNUqFOTnI+P6dbQLD0dgcLBozX1FRQW++dJ6xkV7k8lkCA4JwTMvv4xZL76IooICZGVkoLCgAIHBwejSvbsox0B1dTXWfP21xWsVFxVh9/btGHHnncKxx2fNwoOPPor0y5fh6+eHduHhZjkL5s9p2FbgO3/5BVkZGcLkO4VCgS++/x56vV4IdLRaLUb372+WpOyFGTPw4y+/CL/zduHh2LBjB0qKi5Fx4wY0Gg1C27WDf2Bgg/NsSKVaVYFzv69A3NCalNFyuROGPfgJhj34iSgA2bnycdxMFfdEHNnyDjr1nyKkDlf4huCBuYdRnJ0KZVkOAkK7Q+EjHgq7duYXi6nFAeDQz4sQ3mWkEOR4eAVi4uxfoNNpIZPJhNfR63WN2lgNANalrcfsns8CAOKD4uDj5mOXfU8aandKCpRKpfB3HhAYiO2HDuH8mTMoLS5G++hotG3XzqG7D5s6vH8/Thw5IvTqyeVyPPbUU3j4sceQk52N7MxMBAUHI6hNG3h5e9u0i7SpsZGG3kcttNh541e7tZ9at1bbowHUzElYtWyZ6O5cLpcjOCQEvfr1Q1THjjaPxz4+ZYrZyo3AoCDE9+6NoDZtRH/4ZaWleNwBe35YI5fLERgcjLiePTF01Ch0j483CwpemD69zrHqV559FidNJtV6enkhLiEBEe3bm+2Ku2DOnAb1ZtR68amnzPKIyGQyyOVyyOVyuLi4QOFpniL5yqVLmPHww6KlgTKZDH7+/ugeH4+E3r3Rpm3bFhNk1Dq27UMUZJhvmy6XOwn/TFeNADW9GilfPgKt0YRSudwJAe26IbzzCLMgI/vKAexda31DsLLCm9j48V2oVlWIjsvlTqLAYteq6Tb/bKZ23dwtWn1yZ8Qdjb5WU6jVarxksgGgXC5H9/h4JA4dinbh4UKQodFocPp4w7Oh2sOTU6di+5YtomOubm6IaN8e/RITEdWxI7x9fBoVZMggw7gOhozFW9J/aVKiLv9IyxOSy3MbnuCNbn2tOtAAgCXvvIP7x46tdzOlnKwsLDbZGt3YtfR03DlwIPb++mudCX2OHjyI0f37m61WMdaUNfKmeSRqpWzeLJpLYs2FM2fw4Pjx+N1kW3tTapUK0+67D0s/+EC0CsVUbnY2Jo4ahY0NmJth7PyZMxjdvz/27d6NkqKiBiVLOrx/P0b07o0dW7fWuTcEUNNLs2ndunpXHACoNyFWU2g1Kmz69B4c2fIOSvOu1CTgslFm2h9Y+3YSCjOtTzDW6bQ4tPktbP18qsWJoMaKc9Ow7t1huH52GyrLDUG0VqNCztXD2P3tLGSni4cdKkqsB6em1Fo1Vl8w7EPzUOcH4Cy3rZPV2vu8PtYyde7fuxd/t3CzUEun0+Hq5cuYMHw4rhtl97X0vqrvvWZNfc/TaDSYM2sWpj/0EErqyYaq1Wpx9tQpvD13Lm7YEOAPDx8KP6PEaasv1r0/UH0i+g8zO1aafRPZ55onSKPmJevVpZddPjXlbbxRXV1dZ8rd5qSxsP+HKbmTE+ISEtCnf3907tYNxcXFuHjuHI4ePNigSZtyuRxxPXui/6BBiO3cGVfS0nBw3z6cOn7c5myAUlEoFEgaPhyRUVEIj4yEh4cHbly7hkupqTh55Ahy6ujFqEv7qCgMGjYM3RMSUFJUhMP79+PQvn0N2kNFamEREeg7cCAS+vSBq5sbbly9ivTLl3HiyJE6e29uRXInFwRHJKBN+95Q+LRF/s1TyL12BGWFDd9ttZaTizs8PANQXmyYJBwUHo+/PG3Y9G/Lf+5HzlXbNyh0kbtg7V3fwdO5plfq36c/x09XNtXzLGn17NsXPfv2ReeuXZGVkYFdKSmiyeMthaurKxL69EHv/v0RHRuLwvx8XL1yBRfPn8fJo0dtDnhkkOHbMSsR7F4z9Lvm0losP7eqSW17MuWSKFEfAPz84sPIOP6HlWfQ7YyBBhE1Wvchj6H/+NeF8rdvxKO6qmErFUZFjMSc3jXb11dqqzB5yxRodNZTd5N9jYoYgTm9a4bRKrVVSN46FSpt4zP4to3rg4lLxD2YRdcv44dpo608g253rXYyKBHVzcXN02yOhqmEUU8Lj6tVygYHGQCw88YuDAsbgraKmtURYZ7tcK2s4fN5qHF6BMbh6p+/79UX1zQpyACATqPvNTv22/vmWYap9WCgQUQWTX3jGMryr+LM7yuQdnQddFpDL4OHVyBGP7Ycbh6Gcf0jWxY3+rXmHVjQpLZS431y4l92vV54n8Gicv7lc5yb0cox0CAiy2Ry+IbEImny20ia/DZUlSWoKs2Fm1cg3D3FeSaUpbm4cOC7ZmootSSFVy5AbzQ/5Nf3LOf7oNaDgQYR2cTNw1fUg1GrKOcidiy3nvacWpdf5jV+yTPdnpxCg0Ln2+NCMk836HQ6i7sdtgQ6ibcnJ7rdVKvK4OLqAXevAMidxPlGdNpqVBRl4PjOT7H3hxehrpJu23IiurVx1QkR1Usmd4KHdxA8vIJQVnCdgQUR2YxDJ0RUL71OC2VJjtWU5URE1rT6zKBEREQkHQYaREREJBkGGkRERCQZBhpEREQkGQYaREREJBm7rTopvHHDXpciIiKi2wR7NIiIiEgyDDSIiIhIMgw0iIiISDIMNIiIiEgyDDSIiIhIMgw0iIiISDIMNIiIiEgykuzeGtFWhm/fLoRWJ0eVSo6Sciecv+KGFRudcSPbLrvSExER0S1AkkAjwEePiNBS0bEB8cCjE4H9J9rgoVc8pHhZIiIiamEcPnSS2DMXj05krwYREVFrIOvVpZddvvWLVcXCY7kM8PORwd8biIoApk1QIrFnrqFuqQd6T2ljj5clIiKiFkySoROdHigs0aOwBLh8E9ix3wN7V3ojLKQMAOCtUEvxskRERNTCOGzo5Og5L+Gxk7MWri6OemUiIiJqLg4LNHIKxJ0nESEyR700ERERNROHBRqVKnFZxgweREREtz1+3RMREZFkGGgQERGRZJot0HCVZL0LERERtSQOCzTKKsSTP6MimLSLiIjoduewQOPidXGgkZSgddRLExERUTNxWKBx+qI40Jh8Rzb8vLnElYiI6HbmFBoUOt8eF6rSVtV9Xg30iHVHVHhFzQs76fD3ieVoG+SJQH85PD1kaNdGhuIyGao19mgRERERNTdJ9jqxxkkOzHlMh6njsqDwsBxNPLGgA3Ye4PwNIiKi24FDV51odcDSNU5Yt70tcgsUjnxpIiIiagYOXWQ6vL8My16/CWcXQ2+GVuOE3EIFcgrdodEAx887skVEREQkJYcGGv+akyEKMo6fD8TUf3pBJdrMlcMmREREtwuHBRodI2XwVFQL5eJSD0ye7VXHM4iIiOhW57A5GgPjxT0VX/8c5KiXJiIiombisEAj0FccaBw+4+SolyYiIqJm4rBAQyYTBxo5hY56ZSIiImou3L2ViIiIJOOwQEPObONEREStjuPmaPiJh0603FONiIjotuewQCOibbWonJnHfBlERES3O4cEGu2CZUiMzxfKKpXcJEkXERER3Y4kSdjVLliGT/9ZDg93HQJ8VGgToITu2fc+AAAgAElEQVRMbujBuHzDX4qXJSIiohZGkkAj2F+P3t3yLZ7T62T4x2JvMNU4ERHR7U+SoRNVtfkSE021M/YeDcGd09vjWiaDDCIiotZA1qtLL7t86xerikXlPt1lkMuAG9lAdj4DCyIiotZIsk3Vjp5lcEFERNTaMTMoERERSYaBBhEREUmGgQYRERFJhoEGERERSYaBBhEREUmGgQYRERFJhoEGERERSYaBBhEREUmGgQYRERFJxtk0dTgRERGRvbBHg4iIiCTDQIOIiIgkw0CDiIiIJMNAg4iIiCTDQIOIiIgkw0CDiIiIJMNAg4iIiCTDQIOIiIgkw0CDiIiIJMNAg4iIiCTDQIOIiIgkw0CDiIiIJMNAg4iIiCTDQIOIiIgkw0CDiIiIJMNAg4iIiCTDQIOIiIgkw0CDiIiIJMNAg4iIiCTDQIOIiIgkw0CDiIiIJMNAg4iIiCTDQIOIiIgkw0CDiIiIJMNAg4iIiCTDQIOIiIgkw0CDiIiIJMNAg4iIiCTDQIOIiIgkw0CDiIiIJMNAg4iIiCTDQIOIiIgkw0CDiIiIJMNAg4iIiCTDQIOIiIgkw0CDiIiIJMNAg4iIiCTDQIOIiIgkw0CDiIiIJMNAg4iIiCTDQIOIiIgkw0CDiIiIJMNAg4iIiCTDQIOIiIgkw0CDiIiIJMNAg4iIiCTDQIOIiIgkw0CDiIiIJMNAg4iIiCTj7OfmZ5cLFauK7XIdIiIiun2wR4OIiIgkw0CDiIiIJMNAg4iIiCTDQIOIiIgkw0CDiIiIJMNAg4iIiCTDQIOIiIgkw0CDiIiIJMNAg4iIiCTDQIPoNqVwcUakryec5DK7Xlcus+/1iOj25tzcDSCyxNnZGTNnz8agYcOEY/t++w3/eu+9ZmxVyxbXxhfTesZgQHgAfN1cRQGGslqDrLIq/PvIJWy9lNmg60b7eyO5ewQGhgchxt8LTnIZiqvUOJlTjH3X87H69FXo9Hp7/zhEdJuQ9erSyy6fENzrhOxBoVDg+VdfxYT774eLi4voXG52NsYOGtRMLWu5ugf7YNlf+sPfw82m+leLK/DM1qNIKyyrt26/dgFYfs/AOntFTucUY+qGP6DVMdggInMcOqEWwdffH4uXLMFvJ09i8tSpZkEGWRfl721zkAEAHfw88f19g+DlWneH5qCIIKyYWHeQAQA9QvywPnkIXJz4cUJE5jh0Qs3Ox9cXu44cgYxj/3ZxPKsIBzLycSq7GFeKKxDpo8D93SNxZ0xboY6nizOW/aU/pq7/w+I1XJzk+Hx8f9F8jNM5xVh2NA3n8ksxtmMoZg/sIgQhnQK9MW9oHOb+ekraH46IbjkMNKjZubi4mAUZVZWV+H7VKjw6fToDEBvo9HrsuJKD9/adR2aZUnTuRkkF9t3Iw50xofhkbG/heM+2/ghWuCNPWWV2vYmdw0U9GRlllXhw/R/CXIwVx6/gVHYxvrk3Uahzd6d2mPfrKXAAhYiM3dJ9nU5yZ7g4u0r+Ou6uCslfoyHkcjk8vbyauxki1tojl8uhUNj++6uoqMDSDz7A4B49OPHTRr9dy8Xg5Tvw3C9HzYIMYymXs3Aiu0h0rF9YgMW6jyREicoPGQUZtfIrVaKyu7MT7ohuCyIiY3bt0ZDL5Jg94X0o3Gq+dPZf3IHtJ36s93mDu47DyB73COUlm19BibJQVMfVxR0DYkdhSNe7EBkcC093bzjJnQAAVdWVyCvJxLW8VKQc34C07NM2t3nGmLlo4xsOADiW/js2H/4GPgo/3D9oBhI7jxZ+Fr1ehxJlEVJO/IjNR76FRltt82s01ICkJLzw+utC+elp06DRaDDv3XcxICkJrq41wZVGo0FeTg7eX7gQu7dvt3q9fomJeGbOHKH8wowZyM3Otlg3LiEBcxYsEMrTp06FUmn48pr3zjuIS0gAAKz//nsMHTUKfQcOhIuLCyqVShzYuxcvPPUUOnfrhsWfforIDh0gl8tRqVTip7Vr8f7ChWavWalUIvPmTXy3fDm+X7nStl8SCcpUtr8X91zLRc+2/kK5d2gAtpisQgnx8kBMgCFwzCyrRG6Fea/H/93V1+zYtF7R2H7F8nvL2KSlG+BkcpNwcu0XuLRzY73PJaJbi10DDZ1eh85hCfB09wYARATF2BRoTBk8A4HeIQCAao3aLMiIbtsVb05dafX57i4eiAiKQURQDAZ3HYcffv8PNh6yXt9Y7+gh8PLwBQBotNU4d+MI5k/5As5O4smIMpkcfp6BSE6agWDfUHyR8rZN12+MDjEx6Ni5s1AODQ/Hx8uWwdfPT1TP2dkZoWFh+Ojzz/HV0qVY+uGHFq8XHRuL7vHxQtnXz89qoDFizBhRXVc3N1Gg0S8xEWEREQCAOfPni57roVBgxJgxWPThhxgxZoyoJ8NDocCDjz6K8rIy/Ofjj0XPUyqVGD90qMX2kH1pTFaGVGm0ZnVGdAgRlfdezzOr80BcB1EwUqt7sK9N7Qjp0tPsWKfRExloEN2G7D5HY+/5LRjbawoAwNPdG9Ftu+JK9nmr9UP8woQgAwAOp+02q+Pm7GH1+Xq9DjKZeARoyuCn0CWsJ97973MNarunuzcWPPCV0FNijdzBI05LV66ERz3DD4/NnInVK1agqLCwznqOcPekScJjvV4vmmOR/PDDZoFGSxbiFwZ/rzZNuoZaU1Xn34AjDQwPFJX3XMs1q9PWS7yCZZdJD4WvuyteGdzV4vW58oSITNk90Nh2/Ach0ACAsb2S8e+tC6zWH9MzWVTecmx1nde/mHEKO05twNW8VGQVXoNWp4WXuw9Gxk/CfYlPCD0RCVGJ6BQaj4tZts+CjwrpIjwuryzBnnObkZpxGuVVJWgf3AlJXcYgJrSbzdezl9ogY9vPP+O75cuRfvkyho4cibmLF8PdoyYIk8lkeHHePLz2XMOCq6Z646WX8PP69Xjzo48wbuJE0bk3X3sNG77/Hq+9+SYmT50KoGYZq5+/P4qLiixdrsWZl/w5/L2Cm3QNpaocjy8dZacWNZ5cJhMNm+j0ehzNMg9M23qJA/uscvGwyXt3JAgBRWGlChfySzEowvA7CvBwQ6HJ/A0iar3sHmjkFGcgvzQbQT41k8L6dhwBwHqgMajLWOFxRVWZxTu/ooo8bDvxIzYeXIniinyz8+VVpdh0aBUu3DyB+Q8sE47fN+hJvL1+VoN/hqNpe7Dkf6+K5mGcv3kMvxxfg+6R/eAsd/xinQ8WLcLqFSuE8tZNm3Dy2DFs3rNHODZoyBCHtqm0pAQ/r18PAFg8b54o0CgpLsaG778HALy/aJEQaAA1wy/bt2xxaFsJeKpfLBQuhvfumdwSi0m2ghXiHo3CSrXwOCkiGEPaG3p4nt5yFFPi2ovqt/N2Z6BBRAJJ+jl3nTaMs7q7eKBreB+L9SKCYuCjMMw72Hve8pdPdtENrNr1gcUgw9jFzJPIKrwulCODOzak2QCA/NJsfLjpJauTPc9eP4yTV/c3+LpNUVxUJAoyamXevIn0tDShrHDwSpTrV68KjyvKy6FWGb5crl25IjxWq1SoqqwUyv6B4u77lkytUUGv1zXpn5QTh23VKdAbT/UV/z28vP2ExbrBnu6icnFVTaDhLJfjwzG9hOP/u5SJ49lFKKpSi+qHelkf6iSi1keSW/Mdp9YjOWm6UB7bOxnnbx41qze29xRRedvxH5r82hkF6QgNiAQAeLh6Nvj5y3e2vCWVW376yeq5q5cvI6pjzReIo7NplpeJU1hXV1fD1a3mbristFR0Tqs1TDr0D7C8pLIlen755OZuQpMpXJzx9aREUfKtTw5cwPWSCov1fdwM7yOdXi8sa50zuJtwTlmtweu7aoYli00CjRAbAo38tHNw9fQWHcu7wGRfRLcjSQKN8soSXM9LE3oUekUlQQYZ9CapfBI7jRYe55dmI6c4o95r940ZhmHdxyPIJxT+XkHwcPUUTTY0nsgpr2dSpymtTosT6fsa9BxHSEtNtXouK1O8NNHH1xelJSVSNwlAzbJUY9XVhjt3ZR3n/Pz9QY7hJJfhh/uSRMHD/hv5WHb0stXnqI2CwtrgJNrfGw/1MAyRzNl+Aqo/V6y4O4n/zsrV9ffgrJs+3rYfgIhueZJNNth+ch3+fsc/a17EyQW9ogfj2JW9wvlOofGiRFjGwy2W9Os4AtNGvQQ/T9u73Ru6nXVZZcvcGO6K0fCIKZVKPBYulztu1n9VlXiSoMYomDANQozP1U5gJel9+ZcBomWo10uUmL75cJ3PKVCqEO5j+Nv0dXfF0nGGnBkHbxZgZ3qOUPb3EOfDyC6vBBFRLcm+lfae2wK9XieURyfcJzpvvDIFqBlusaZ39FA8P+Edi0GGVqdFlVop/DN+zYYqLDNf6tcSmH5ptxR6nfh3rTfKHKk3ySJpWibpfXBnbwwwWs5aVKnCfWv3QqOr+28kVykOXp8d0Ant/WoCD61Oj+e3HROd93UXBxoZZebJvYio9ZKsR0OtUSE14xS6hNck5olr3w9OcidodTXdrX06GhI03ci/jPJKy939Msjw7Pi3RMcuZZ7Bj398jvM3jwrXq/X0uEVI7HJno9qsVJU36nm3E+4qIja+78OIbmM5Z4StCity8e1vS+zUItu8Mrg7xsWGCmVltQYT1/yOcrWm3ufmmCxnfcBoVclbe8+ZzcnwdxfPDWKPBhEZk3Sd5i/HfxACDSe5E/rHjsL+1BT0aD9QtEfJ9pPWezP6xAwV1T10cSc+2fyq1fpt/SPt0PLbi7JCPOmvruGVNqGhVs+1Rnf1fsAueTQcGWjM7BeLvyZ0EMoqrQ73/vC7xc3TLLEWKFwqKMOaM1fNjscaDc3o9HpUaxvfq0hEtx9JA40jabuh0VYLSbTuTJiM/akpGGuUpEuv12HP2c1WrxHXvp+ovHxX3atCgn34RWmqWm2y/DAsDKnnzlms2y483BFNIok8HB+FWf07CWWtTo8pP/5udYWJJan5ZWbHdHo9Zm45YnY8UOEGfw9D3o3CStuW8kYl3QlFoDjjalluJq4f2GVzO4no1iBpoKHT63A8fR/6dRwOAOgUFg93Fw/ERw0U6qRmnIJaYz25j5e7Ye8EvV6HUqX1CZtdw/sI+5aQwbX0dFG5fVSUlZpArNEeKwT8fmEbYtvGNeka+WWZ9Veygwmdw/HqEEPmWp1ej0f+ux8XC8wDh7rsu5EHZbVGlNzry2NXkFFqPlforo7tROUN52/Y9BrDXnwH7j7ivXuUBbn4OnmglWcQ0a1K8hSXW4+tEQINmUyOp8e9JVqC+ks9uTMyC68Kj2UyOcKDonEz/4rFuk/eaX1IpTW7fOmSqHz3vfdi1bJlZvXuuf/+Frf9fHP7fs+/mrsJNhkZFYJ37kgQyjq9Hk/+fAjHsxuX6n3zxUwkdzcMQwZ7upnVcXd2wqz+saJjq06mm9UjotZN8kDjws3jqFIrhaWsvWKShHMabTWOWNhEzdilrLOi8kv3fIRXvn1YNHHTy90Hc5M/Q4gfu/0tUatUUKtUQjKtjp06Yeq0aaJso6PGjsXrb0u3I2195HI54nqa7+hpzNPbG/G9e4uOlZeV4YpJINXa9GsXgE/vEmff/exIGkqq1Oge7FPnc4tVGos9FV8dvyIKNCZ1CceBG/n4+WJNrhtnuRxfTRggys9xLq8ERUw9TkQmHLJpx/7UFIzoMdHs+PH0fdDVsxz13I0jKK8sEYZEgn1D8flTKThz7TDKqgoRGdQJYYFR9e642tpt2bgRE5MNc2NenDsXj82cicL8fASHhJhtQe9oPr6+WLluXZ11PD09zeqUFBVhRB/LKe5bi3GdwsxyxszsF4uZ/WKtPMPgUkEZ7lmzx+z4jZIK7ErPxcgowzyKd0f3xBvD45CvVCPcx0P0mjq9Hm/vPWt2HSIih2R32nJsjcXjW60cN6bVafDef2eLjjnJnZAQNRCDu45DZHBHIcio1qhx/HLLy+zZEnyyeDE0GvHSxoDAQHTs3FkIMtRqNTbV82VPrcesLYexw2SLeIWLMyJ9FaIgQ6vTY9pPB3Asy/ZhGheF+fYAqoqGzSUholuDQwKNjIJ0FJWLN0SrUitx4eZxm56fln0Gr377V+SVZFk8r9VpcSnzDJ758h5kFV8VHa9PtdGGV2pNy0g0ZLqHSEMYp/o2VlpSgkmjRlndnl2pVOLRyZNRkC/+fzK9nlrVuK5xtcnKF1O6epJIWWPt5yXbVGnq/ht5ZutRrD17HSorS1ZzK1R4aMMfOJxpvt28NcGde8DJ2Xxfnj/+vdDmaxDRrUPWq0svu6RsLFY5Jn13+zaxiGrTFZHBMcgvzcGpawesTg4lc3K5HPG9emHA4MGIjo1FXk4Ojh48iF9TUpq7adTChfkoMKJDCMJ8PHDgRj4OZBQI+500xOCn5yNu4iOiY8UZV7HmkZH2aioRtSC3XKBBRLe2B1btgF94tOjYxuemIOt03XuwENGtyXE7cBERAfAN6yAqF6anMsgguo0x0CAihwnrNQgymfhj59f3X26m1hCRIzhkeSsREQDodBqUZFwTyrkXTiAv9XQztoiIpMY5GkRERCQZDp0QERGRZBhoEBERkWQYaBAREZFkGGgQERGRZBhoEBERkWQYaBAREZFkGGgQERGRZBhoEBERkWQYaBAREZFkGGgQERGRZBhoEBERkWQYaBAREZFkGGgQERGRZBhoEBERkWQYaBAREZFkGGgQERGRZBhoEBERkWQYaBAREZFkGGhQiySXy9E+Kgpt2rZt7qbcsrzdXBDp6wlnuX3/zOUymV2vR0S3N+fmbgARAHh5e+NvTz6JcRMnIjA4GK6ursI5nU6HivJyXDh7FnNfeAG52dnN2NKWqV+7ACRFBmNAWCBiA72hcBH/aVdptMitUGHF8Sv44ey1Bl072t8byd0jMDA8CDH+XnCSy1BcpcbJnGLsu56P1aevQqfX2/PHIaLbiKxXl152+YQoVhXb4zLUCi1duRIDhwyBzIY7Zb1ej40//oiF//ynA1p26zj3j7ttrpuvVOPZrUdwPLuo3rr92gVg+T0D4SS3/n9zOqcYUzf8Aa2OwQYRmePQCTW7uJ49bQoyAEAmk2FicjLmzJ8vbaNuY0EKVyyfOBDBCvc66w2KCMKKiXUHGQDQI8QP65OHwMWJHydEZI5DJ9SiVFVW4vD+/Th94gSOHjwIvU6HAYMH429PPgl3Dw+h3pRHHsHu7dtxcN++Zmxty5NeVIHtV7JwIb8UN0oqkF9ZjUgfD4yOCcWDce2FoMHNSY5VkwZi3He7LV7HxUmOz8f3F83HOJ1TjGVH03AuvxRjO4Zi9sAuwvU6BXpj3tA4zP31lOQ/IxHdWjh0Qs3utxMnAAArPvsMXy9bBp1OZ1bH1dUV//v9dwQGBQnHzpw8iUcmTXJYO1uy/mGBOJNbAmW1xmqd9n6e+N/UYaLgYdBX21FcpTare3+3SCwY0UMoZ5RVYsw3v4rmYvQJDcA39yYK5SqNFn0+/wUcQCEiY7d0X6eT3Bkuzq71V2wid1eF5K/REHK5HJ5eXs3dDBFr7ZHL5VAo6v79PTl1Kob17ImVn31mMcgAALVajeefeEJ0rH1UVOMaexs6lFFQZ5ABANeKK7Du3A3Rsf5hgRbrPpIg/t0+tP4Pswmf+ZUqUdnd2Ql3RHOVEBGJ2XXoRC6TY/aE96Fwq/nS2X9xB7af+LHe5w3uOg4je9wjlJdsfgUlykJRHVcXdwyIHYUhXe9CZHAsPN294SR3AgBUVVciryQT1/JSkXJ8A9KyT9vc5hlj5qKNbzgA4Fj679h8+Bv4KPxw/6AZSOw8WvhZ9HodSpRFSDnxIzYf+RYabbXNr9FQA5KS8MLrrwvlp6dNg0ajwbx338WApCRhRYZGo0FeTg7eX7gQu7dvt3q9fomJeGbOHKH8wowZVlduxCUkYM6CBUJ5+tSpUCqVQnneO+8gLiEBALD+++8xdNQo9B04EC4uLqhUKnFg71688NRT6NytGxZ/+ikiO3SAXC5HpVKJn9auxfsLF5q9Zuq5czb9Xs6cPAmtVgsnp5r/d28fH8jlcqvBCZk7nVuC5O6GcrdgX6RczhLVCfHyQEyAIXDMLKtEbkWV2bX+766+Zsem9YrG9iv1rwqatHQDnExuEk6u/QKXdm6s97lEdGuxa6Ch0+vQOSwBnu7eAICIoBibAo0pg2cg0DsEAFCtUZsFGdFtu+LNqSutPt/dxQMRQTGICIrB4K7j8MPv/8HGQ9brG+sdPQReHr4AAI22GuduHMH8KV/A2clFVE8mk8PPMxDJSTMQ7BuKL1Letun6jdEhJgYdO3cWyqHh4fh42TL4+vmJ6jk7OyM0LAwfff45vlq6FEs//NDi9aJjY9E9Pl4o+/r5WQ00RowZI6rr6uYmCjT6JSYiLCICAMwmZHooFBgxZgwWffghRowZI+rJ8FAo8OCjj6K8rAz/+fjjen4D1umN7qr1ej2DjAZq5y2eAJpdbh5AjOgQIirvvZ5nVueBuA6iYKRW92Bfm9oR0qWn2bFOoycy0CC6Ddl9Muje81swttcUAICnuzei23bFlezzVuuH+IUJQQYAHE7bbVbHzdnD7FgtvV4HmUw8AjRl8FPoEtYT7/73uQa13dPdGwse+EroKbFG7uARp6UrV8KjnuGHx2bOxOoVK1BUWFhnPUe422jehF6vF60oSX744UYHGmGRkXB2Nrxl83JyGt9IG4X4hcHfq02TrqHWVNX5N+Aoni7OeKhHB9GxY1kFZvXaermJyrtMeih83V3xyuCuFl+DK0+IyJTdA41tx38QAg0AGNsrGf/eusBq/TE9k0XlLcdW13n9ixmnsOPUBlzNS0VW4TVodVp4uftgZPwk3Jf4hNATkRCViE6h8biYZfss+KiQLsLj8soS7Dm3GakZp1FeVYL2wZ2Q1GUMYkK72Xw9e6kNMrb9/DO+W74c6ZcvY+jIkZi7eLGwEkMmk+HFefPw2nMNC66a6o2XXsLP69fjzY8+wriJE0Xn3nztNWz4/nu89uabmDx1KgDA198ffv7+KC6qP4eDqckPPCAqn/5zEqmU5iV/Dn+v4CZdQ6kqx+NLR9mpRY2TFBGMRSPj4eNm6Kk7l1eCiwVlZnXbeokD+yyTXo/37kgQAorCShUu5JdiUIThdxTg4YZCk/kbRNR62T3QyCnOQH5pNoJ8aiaF9e04AoD1QGNQl7HC44qqMot3fkUVedh24kdsPLgSxRX5ZufLq0qx6dAqXLh5AvMfWCYcv2/Qk3h7/awG/wxH0/Zgyf9eFc3DOH/zGH45vgbdI/vBWe74VcEfLFqE1StWCOWtmzbh5LFj2Lxnj3Bs0JAhDm1TaUkJfl6/HgCweN48UaBRUlyMDd9/DwB4f9EiIdAAaoZftm/Z0qDX8vTywkN//7vo2JpVqxrb9Nvak31icF+3SACAp4sTfNxczXJhFFaq8NTmIxafH6xwM6lrWJWSFBGMIe0NPTxPbzmKKXHtRfXbebsz0CAigST9nLtOG8ZZ3V080DW8j8V6EUEx8FEY5h3sPW/5yye76AZW7frAYpBh7GLmSWQVXhfKkcEdG9JsAEB+aTY+3PSS1cmeZ68fxsmr+xt83aYoLioSBRm1Mm/eRHpamlBWOHglyvWrV4XHFeXlUKsMXy7XrlwRHqtVKlRVVgpl/0DLKx3qsmz1ari4GO7Gz/yZZ0Nqao0Ker2uSf+knDhsSccAH4T7KBDuo4C/h5tZkPH5kTTc8fWvyFOaz88AgGBP8TyO2uWvznI5PhzTSzj+v0uZOJ5dhCKT5bGhXtaHOomo9ZHk1nzHqfVITpoulMf2Tsb5m0fN6o3tPUVU3nb8hya/dkZBOkIDau7mPFw9G/z85Tvfa3Ib7G3LTz9ZPXf18mVEdawJqIy/iB2hvEzc7V5dXQ1Xt5q74bLSUtE5rVYrPPYPCGjQ6zz98svoGhcnlNUqFZ426d2QyvPLJzvkdRwpuXsEzuaVYIeV1SHGwys6vV5Y1jpncDfhnLJag9d31QxLmubhCLEh0MhPOwdXT2/RsbwLTPZFdDuSJNAoryzB9bw0oUehV1QSZJBBb5LKJ7HTaOFxfmk2cooz6r1235hhGNZ9PIJ8QuHvFQQPV0/RZEPjiZzyeiZ1mtLqtDiR3vIyTaalplo9l5WZKSr7+PqitKRE6iYBACqNVqMANYFGLWUd5/z8/W1+jb9MnoxpM2YIZb1ej388+ihKGjHHo7X44cw1pBbUBHqBHm6I8fdE73YB8PxzozV/Dzd8elcfLP79HL45mW72fLVRUFib3Cva3xsP9TAMkczZfgIqTU09dyfx31m5uv4enHXTxzfwpyKiW5Vkkw22n1yHv99Rs/GVs5MLekUPxrEre4XznULjRYmwjIdbLOnXcQSmjXoJfp62d7s3dDvrssqWmd30itHwiCmVSjwWLrfzluB1qaoSd71rjIIJ0yDE+JxxKvG6JA4divnviXuYFs+b55Ahk1vZ0axCHM0Srz6Sy2R4sk8MnhlgWDb9yuBu2JWeg4xS8f9VgVKFcB/D36avuyuWjjPkzDh4swA70w0rfvw9xPkwsssrQURUS7Jvpb3ntkCvN+Q4GJ1wn+i88coUoGa4xZre0UPx/IR3LAYZWp0WVWql8M/4NRuqsCy30c+VkumXdkuhN8lhYZrjwto5W3Tr0QOffvWVqLfqq6VLse677xrRUtLp9fjsSBq+PHZZdPz1od3N6uYqxcHrswM6ob1fTeCh1enx/LZjovO+7uJAI6PM8twPImqdJOvRUGtUSM04hS7hNYl54tr3g5PcCVpdTXdrn45Dhbo38i+jvNJyd78MMjw7/i3RsUuZZ/DjH5/j/M2jwvVqPT1uERK73NmoNitV5Y163u2kYX1A0mgfFYUV69YJGUABYNO6dVYTkklpfN+HEd3Gcs4IWxVW5OLb35bYqUVN89H+C5jWM5WdmwgAACAASURBVFqYIJoQ4mdWJ8dkOesDRqtK3tp7zmxOhr+7eG4QezSIyJik6zR/Of6DEGg4yZ3QP3YU9qemoEf7gaI9SraftN6b0SdmqKjuoYs78cnmV63Wb+sfaYeW316UFRWicl3DK21CQ6VuTp1C2rbF95s3iya27tm5E/NffrlZ2nNX7wfskkejpQQaAJBTUYV23jXDV8YTP2tZCxQuFZRhzZmrZsdjjTKE6vR6VGuZrZWIDCQNNI6k7YZGWy0k0bozYTL2p6ZgrFGSLr1ehz1nN1u9Rlz7fqLy8l11rwoJ9mneL8qWqFptsvwwLMzq/iLtwsMd0SSLfP39sS4lRTSH48SRI3jOZDM1ahqFi9GEaQvzmFLzzZN46fR6zNxinncjUOEGfw9D3o3CStuW8kYl3QlFoDjjalluJq4f2GXT84no1iFpoKHT63A8fR/6dRwOAOgUFg93Fw/ERw0U6qRmnIJaYz25j5e7Ye8EvV6HUqX1CZtdw/sI+5aQwbV08cqCunY9jTXaY8WRFAoF1qekiHaBvXj+PB5LTq7jWdL7/cI2xLaNq79iHfLLMuuv5CC+7q7wM5pTobLQ+7DvRh6U1RooXAwfD18eu2I2aRQA7urYTlTecP6GWR1Lhr34Dtx9xMM2yoJcfJ080MoziOhWJXmKy63H1giBhkwmx9Pj3hItQf2lntwZmYVXhccymRzhQdG4mX/FYt0n77Q+pNKaXb50SVS++957sWrZMrN699x/f7NsP+/q6or127cjwCiR17X0dEydMMHhbTH1/Z5/NXcT6nVnTChO5hQjx4a5EV/+pb+ofCLL8jLhzRczkdzdMAwZ7OlmVsfd2Qmz+seKjq2ysFyWiFo3yQONCzePo0qtFJay9opJEs5ptNU4YmETNWOXss6Kyi/d8xFe+fZh0cRNL3cfzE3+DCF+zdft35KpVSqoVSohmVbHTp0wddo0UbbRUWPH4vW3pduRti7fb96MEKO5IWq1Gu/Nn49efc23ITd1/vRps5wdrc3zA7ugvZ8CFwvK8NWxy9iZngNltUZUp1dbfywcEW+246q1Hoivjl8RBRqTuoTjwI18/HyxJteNs1yOryYMMNs7pYipx4nIhEM27difmoIRPSaaHT+evg+6epajnrtxBOWVJcKQSLBvKD5/KgVnrh1GWVUhIoM6ISwwqt4dV1u7LRs3YqLRMMSLc+fisZkzUZifj+CQELMt6B2pNrNpLVdXVyy1cR+TWdOm4Y/ffpOiWbecToHeeHd0zeRrrU6Poqqa+RL+7i5maciBmnwYtYGDqRslFdiVnouRUYZ5FO+O7ok3hschX6lGuI+HaH6HTq/H23vPWroUEbVyDsnutOXYGovHt1o5bkyr0+C9/84WHXOSOyEhaiAGdx2HyOCOQpBRrVHj+OWWl9mzJfhk8WJoNOK73IDAQHTs3FkIMtRqNTatW9cczSM7c5LLEKRwRZDCfEM1ALiQX4oZmw/VeY1ZWw6bpSlXuDgj0lchCjK0Oj2m/XQAx6wMw1jiojDfHkBVYT4JlYhufQ4JNDIK0lFULt4QrUqtxIWbx216flr2Gbz67V+RV5Jl8bxWp8WlzDN45st7kFV8VXS8PtVGG16pNS0j0ZDpHiINYZzq21hpSQkmjRpldXt2pVKJRydPRkG++P/J9HpqVeO6xtUmK1/sRVnO3CdLDl7AH39O4KxPboUKT20+jHt/2GtxIqipZ7Yexdqz163Wza1Q4aENf+BwZqHF85YEd+4BJ2fzZbV//HuhzdcgoluHrFeXXg1L2WhFscox6bvbt4lFVJuuiAyOQX5pDk5dO2B1ciiZk8vliO/VCwMGD0Z0bCzycnJw9OBB/JqS0txNIzsI81GgU4A32np5IMTLHQoXJ1wvUSKtsBQXC8qbtH17mI8CIzqEIMzHAwdu5ONARoGw30lDDH56PuImPiI6VpxxFWseGdnothFRy3XLBRpEdGt7YNUO+IVHi45tfG4Ksk4fbqYWEZGUHLcDFxERAN+wDqJyYXoqgwyi2xgDDSJymLBegyCTiT92fn2/edLLE5FjOGR5KxERAOh0GpRkXBPKuRdOIC/1dDO2iIikxjkaREREJBkOnRAREZFkGGgQERGRZBhoEBERkWQYaBAREZFkGGgQERGRZBhoEBERkWQYaBAREZFkGGgQERGRZBhoEBERkWQYaBAREZFkGGgQERGRZBhoEBERkWQYaBAREZFkGGgQERGRZBhoEBERkWQYaBAREZFkGGgQERGRZBhoEBERkWScm7sBRFLol5iIj7/4AjIr55UVFRg9YIBD20RE1BBt2raFh4cHrqWnN3dTmoSBBt2WOnXtCoVCYfW8q5ubA1tDBAQGBeHl+fPRPipKOPb5kiX4NSWlGVtFLYVcLsfE5GQ88Le/ISwiAu4eHpDJam6V9Ho9qiorkZWRgTdfew0njhxp5tY2DAMNui2pVSro9XrRsdo/2qbq0r07vlizRig/dv/9uHThgl2uTbefsMhIvP7WW+g/aJDZe3DM+PEMNAiPz5qFJ595Bs7Olr+SZTIZPBQKRMfGYvnatTh17BiefeIJlBQVObiljcM5GnRb+vG779AnJkb0b8/OnXa5dmhYGDw9PYV/bUND7XJdur107tYNX2/YgJ9378aApCS7Bbp0++mXmGg1yLAkvndvrFi7VsIW2Rd7NIiI7GzCffdh/nvvNXcz6Bak0+lw6tgxnDp+HMcOHUJudjbievbE32fORIjRTU2HmBi8NG8e3l+4sBlbaxv2aBAR2VlgUJDZsfzcXGz88cdmaA3dCjQaDTatW4fhvXrhseRkfLJ4Mfbs3IkLZ89i3Xff4a6kJOzbvVv0nElTpjRPYxvolg40nOTOcHF2lfx13F2tTypsCby8vZv0fE8vLzu1BHB1dbXr9ah18PTygtzJqbmbIZDL5XD38LB4ztXVtUHd3Jk3b2L29Om4c+DAFj8fI6FDIl685wO8eM8H+Eu/R5q7OVbJ5fIW9zlT1+Tz+tq6eN48DI6Lw/yXX0Z5WZnVei/MmIHq6mqh7O7h0eTPf0ew69CJXCbH7AnvQ+FW80vdf3EHtp+oP4If3HUcRva4Rygv2fwKSpSFojquLu4YEDsKQ7rehcjgWHi6e8NJXvPBVFVdibySTFzLS0XK8Q1Iyz5tc5tnjJmLNr7hAIBj6b9j8+Fv4KPww/2DZiCx82jhZ9HrdShRFiHlxI/YfORbaLTVdV3WbmbOno3ho0cDAAry8/HUX/8KV1dXPDV7NiZNmQJvHx9h7FetUuHw/v146/XXkZ2ZafWaUx55BHdNmID2UVHw8fODTCaDRqNBXk4Ozpw8iQUvvwylUmlT+7y8vfHKokUYNHQoPL28hA9gvV6P6upq5OXkYPf27fh+5Upk3rxp8Rr9EhPxzJw5QvmFGTOQm51tsW5cQgLmLFgglKdPnWpzWxvDy9sby03GQoPatBGVX1m0CE9b+HDQ6/WYMm6cZG27lXz42WeIaN8eAHB4/368v3Ah7n3wQTz59NMIDgkR3sNlpaU4cfQoXpg+HRqNxur1Fi9ZgvA/r3fkwAEseecdq3Xnv/ceYjp1AgD8tmMHvvy//xOdX7V+PTz+/JL49N13Mfu11xAZFQW5XI7CggJ8v3Ilvlq6FBOTk/HU888jOCQEAFBSVITFb7yBlM2bzV4zLTUV6WlpeOeNN3B4/35bf03Nrmd0EnrHDAEABHiH4OfDXzdLOwYkJeGF118Xyk9PmwaNRoN5776LAUlJcHWtucGs/dx6f+FC7N6+3er17PkZc++DD+KBR2qCsHOnTyM/Lw9T/vpXeHp5QaPRIC01Ff/4299QUVGBz775Bt3i4+Hq6orq6mqcPXkSjz/4IHRareg1r16+bNPvRa1WI+P6dXSIiRGODRo2zOJ70Fhw5x4YNnux6Jher0PKgn+gLOuGTa/dFHYNNHR6HTqHJcDTvSbCigiKsSnQmDJ4BgK9a/54qzVqsyAjum1XvDl1pdXnu7t4ICIoBhFBMRjcdRx++P0/2HjIen1jvaOHwMvDFwCg0Vbj3I0jmD/lCzg7uYjqyWRy+HkGIjlpBoJ9Q/FFyts2Xb+p+iYmomPnzgCAyKgo+AcEYP327fDz9zer6+rmhqThw/Htxo24o18/s/Ne3t5Ytno1unTvbnbO2dkZoWFhCA0LQ9Lw4Zj1t7/hxNGjdbbtnvvvx9zFiyGXm3eMyWQyuLq6IiwiAg899hjunjQJI/v0sXid6NhYdI+PF8q+fn5WPwRGjBkjquvq5iZpoOHu4SH8/q1p266dZK9/u+g7cCC8fXyE8t9nzsQ/XnzRrJ63jw+GjBiBlIMHkXzXXcjPzbV4vUHDhgnXc3NzqzPQGDthgvDFVK1WmwUa3RMShPfwkq++Ek3aDAgMxD9eeAHOzs548plnROd8/f2xeMkS5GZnmy033Pvrr9j7669W20R16xATI/q7Cw0Px8fLlsHXz09Ur/Zz66PPP8dXS5di6YcfWryePT9j4nv1Etpm+tng7OyMLt27Y/mPP6JSqRR91rq4uKBn375YuW4dHpk0qb5fgVUakyClrh6QWr6h7RHUsZvZ8fDeSTj/vzUWnmFfdp8Muvf8FoztVTNu5Onujei2XXEl+7zV+iF+YUKQAQCH03ab1XFzttyFCdREZTKZ+ItuyuCn0CWsJ97973MNarunuzcWPPCV0FNijbwZR5zWbt1qMcgwZumLv2OnTvh240ab8kcoFAp8tXYtZjz8sNW7sejYWItBhl6vh16vNzvu4iIO3FoD0+W1UvDy8EV4YHSTr3Mp8xS0Om39Fe2gfXS0xSDDmJ+/P9545x08/dhjDmlTLWsrQ6Y/+6zV+n+fOdPh7Wxtlq5cKfQ6WfPYzJlYvWIFigoL66znCMa5UkzFJSTA08sLFeXljbp25J89eUDNZ8yB339v1HUcye6BxrbjPwiBBgCM7ZWMf29dYLX+mJ7JovKWY6vrvP7FjFPYcWoDrualIqvwGrQ6LbzcfTAyfhLuS3xC6IlIiEpEp9B4XMw6ZXPbo0K6CI/LK0uw59xmpGacRnlVCdoHd0JSlzGICTWPCh3F1dUVgcHBAGpmJu/ZuRMnjx7F5YsXEdOpEwYNG4Z+iYkWn/v+f/4jCjLUKhU+fPNNpGzZgrKSEnTr0QOvvvmmEIHLZDIs/vRTiz0jAPDam2+KgokLZ85g4Suv4MLZswBqek/ie/fGXx9/3GqbbgWF+fm4b8wY0bEBSUl4ad48ofzOG2/gyIEDZs+15U6jqR4Z/jwGd72rydeZ+fndKK7It0OL6lcbdFaUl+O9BQuwZ9cuBAYF4ZmXX8bQUaOEeol/Dsc19gO5MTQaDe4fMwZZGRlYv307wiIiROemjh+PK5cvY31KivBlEt+7t8Pa11rVBhnbfv4Z3y1fjvTLlzF05EjMXbxYmEsjk8nw4rx5eO25ht1gNtX2LVswZ9Ys3Dl+PN759FPRuV9TUvDSzJkYPGIEPvniC+H4+HvvxQ9fN3xYKrZLF9HneGF+vtkwTEtk90AjpzgD+aXZCPJpCwDo23EEAOuBxqAuY4XHFVVlFns/iirysO3Ej9h4cKXFD8PyqlJsOrQKF26ewPwHlgnH7xv0JN5eP6vBP8PRtD1Y8r9XRfMwzt88hl+Or0H3yH5wljfvquDCggL8PTlZlJb29927sWrZMkTHxuKOu8RfPOMmThRF2Pm5uZg4cqSoO/DMyZOY+pe/4J1PP8Wd48cDqOk2nv7ss/h8yRKzNrSPNtxFlxQVYeqECaLz5WVl+OO33/DHb7/B08sLw+64o2k/dDPR6XS4cumS6Jjp3UrWzZtmdahuJUVFuHvIEOE9WFJUhOeeeALLVq9G34EDAdT0zI0eNw4/OTBfwJEDB4S/q1XLluHVRYuEc4f/+ANpFy/WnPv8c8z7c7jGeEiIpPPBokVYvWKFUN66aRNOHjuGzXv2CMcGDRni8HYt/Oc/AQApmzfjlYULRcM7c2fPFm4KS4qK4Ptnb3Tv/v0bFWi8t3SpqLxz27YmtNxxJBkD2HV6o/DY3cUDXcMtj81HBMXAR2H4T9l7fovFetlFN7Bq1wf13nFdzDyJrMLrQjkyuGNDmg0AyC/NxoebXrI62fPs9cM4ebX5Jnfp9Xo8cPfdVnPfX7l0CctMouqX33hDeKzT6TAtOdnqvIZXn38elUbn7rn/fov1jGdYV1VV1dnmivJybPnppzrrUONUa6uh1+vs8s+RPl682OJ78JPF4glrkR06OKhFNU4azUvab/QFBgDHDh0SHh/64w/Rudo5ICSN4qIiUZBRK/PmTaSnpQllhYNXolRVVop63G5eN3z/VCqVovf4DaNzPr6+DX6tp55/XnSTU6lU4r0F1m/iWxJJbs13nFqP5KTpQnls72Scv2k+sXBsb/Ea4G3Hf2jya2cUpCM0IBIA4OHq2eDnL9/ZspPs/LZjh9UJcpY4OzuL3tSp584hw+gNb0qn1WLfb78JvSKmKyyEekbzD0JCQ9E+KuqW3/jnVvRFylv4IuWt5m5Gg9TmC7Dk3GnxirGwyEhHNElQmG+4mSkqKBCdKzA6V2wyDyCoTRurq6pampjQ7ugUGm/xXM8OhmHOAK9g3NX7QYv1VNVV2HX6v5K0z5K6blSuXr6MqI41N5WOngumVqtFZWVFheGcSiU6Z3wD19Club369cPjs8S98y8+9ZTNwyaF19NQknENMpO5c2U5jnnPShJolFeW4HpemtCj0CsqCTLIoId4clxip9HC4/zSbOQUZ9R77b4xwzCs+3gE+YTC3ysIHq6eoglcxhM55fVM6jSl1WlxIn1fg57jaN8tX96g+nEJCaJy17g4HExNFR0znQDnZJTPwNnZGe3Cw80+RDNv3BDNuF6/fTsO7tuHXzZtws6tWyVdCUK3top65q5oNBphmXRAYKAjmiQwnldj+h42vnM1PRcQFHTLBBrTR7+O8KD6JxD7KPzx1+GW5ztodVqHBhppJp9ZxrJMlvL7+PqitKRE6iYBgCinBSDu3a3rnFcDAo2I/2/vvsObLNs2gJ9Z3aV7l0Kh7AKFyiobBBGVoSCyFF5luMAFiK/wgaggigNBEXgRUERBQPaSIcgSkFU2FEsHhe49k3x/1CZ5spq0edIC5+84chx5Ru7cTZMnV+5x3fXqYcmPPwqu0yu+/RbHDh+2uIyMuCtY+3xPi8+3NdGmT+w9p/3FIpcp0KZBF8HxxkGtBImwdLtbjGkX0RPfTNiBtwbOR3REN9Tzb4Q6Ll5QyB0glyk0N90ZKFIr1xbILcyy6vyaUDHY0lIt27Qx2KdQKAQ3uVwuuOkHHt5Gshz+35Qpgm2pVIpOXbti9qef4s/YWBw+fx4r1q9H/0GDjM6CoYdXZiULQalU2m4cmZ2TeBUWFpo8lmdmUKqrq/Wtp2S5OJ3uEX3Fei0H9rzelOkHEzrvH/3WjmKdQENhYVebl7c31m7fLmipObRvHxZ9+mlVqltjRPuPHL60Q9Dv26f1EMFx3ZkpQHl3iyltG3TDmwPmwdPV8NeNUqVEUUmB5ladvuaMXMu7JGqCSqWyegS+h95UWKVSidLSUqtuxrIgXo6NxYy33zaZVMnVzQ1R0dH48PPP8fvJk4IEM/Rw07841yZKM0nC7ofR/ZZIzohHTkGW0Zv+2DRT5926a9/VigtraQupwRR2nW39Y2qVdd9NLi4u2LB3r2A83OXYWLwxbpz1Fa1hok2fKCkrxtWk82gaGgUAiKzXDjKpTDNXPzqim+bchLSbyCs03tQlgQSTnxT2QV9PjsX6o9/hcuJpg7n/r/efg05N+1apzgXF9ptGVxXmMiWaot+q88XcufjJyu4XU7Zv2oS9O3ZgxNixGPDMMwgJCzPaR+rp5YWftmxBt9atq/Q36OL6l0Jtwrugqw2mty79/SMUldTOi3l1cdVUoS+3vWvy2Au93sFjUeUDwP+5dw3v/TjaXtWqNWrDu0Uul2P97t2CnEkJ8fEYXY1EXzVJ1Hmau878ogk0ZFIZ2jfqjWNX96BlvY6CNUr2njPdmhHdsJvg3L+u7cOX294zeX6gl30Hj9V2sefOCbZDQkNtWn5JcTFWLlmClUuWlJcfFoZnnnsOA4YOFfSvOzk74/WpU/HFx4YZVXUHUAHmmz79uSS7QKemj6Jj0+pPHV79xxf3VaCh3/9tjjXrktCD6X66xkilUvyyYweCQkI0+9Lu3cPQfv3u21Y1UTuzTt04KGiK69v6GQBAP50kXWq1Cocums7THllPmDBqxX7zs0L86vCLSNc5vTTium9eMSTdvo2F8+fj0XbtsO7HHwXH2phI/lWq15dpro7B1QiUdPtMbdmPK+MXmd3pNkOby2Ph5e3NFg2y2zXGFlb++qtmFg0AZGdl4ek+fQxmsVirxYBRBjffxpHVra5FRL1CqtQqnLl1BO0iegAAGoe0gpPCGa3CO2rOuZp0HiVlpl9ANyft1Ey1WoWcAtMDNpuFRmvWLaFy6WlpUKlUmi/Wzj16wMHBwWCgkhjmzZyJQUOHajLZ+ZmYKqs/LdZc+t5Glaw7Yk58XJzmvkQigY+vr2DKoqVS9aYX62aPtLezt47B1736wXVJmflcKLVNdlaWJkuuu5mcBP0HDbJXlagWs9c1prq+Wb0akVFRmu2CggIM6dvXJlmGu07+wGBf3KGd2DP71WqXXRnRf4rt/PtnTaAhkUjxev+PBFNQd1WSOyM54x/NfYlEilDfBkhMizN67vi+prtUHmZ/HjigSe2sUCgwbfZszJk+vdLHNWneHKWlpUazXrq5u1f65pfL5ZDrjNnQn4ZW4aZe+U88/TRWLV1qcN7AoUOrtTT0db0pcuMmTcI8nVTilrp2WZi9tn1MjNXTjm3l6JXdOHrl/sgOaEup9+6hQaNGAMoHzUW2bm3QTQgAL74q/kWUaj97XWOq45Ovv0bHLtrZmSXFxXi2X78q/RiqbUSfB3Ql8Yyg77dNw86a+2XKUpwysoiarut3hNM5pwz8XLN0ewU3pzr45PmfEOBZs01etdV7kycL+rQHDxuGxatWadYI0CWVSjF8zBjsPHIEa7dtw+N6qcUr/HH2LHYfO4YxEyca7QN3cHTE97/+KuiiOHvypNGySoqLBc2CEY0bY8TYsYJzevfrh/eNjO+wxvHDhwVTJ4eMGIHhY8ZY3YdfUlwsGNTapWdPDB05slp1I+tcOHNGsL1gyRLBDCsHBwf88NtvlS5AKKY6Hh5o1bat4BauN/sqODTU4JyAwMAaqvGDy17XmKqaNmsW+jzxhGDf/NmzERQSgugOHcze/O+D94tdOpePXd2Dni0NmzDP3DoCVSXTUS8lnEJeYbamS8TPIwjfvbwHsfEnkVuUgTDfxgjxCa90xdWHWUFBAb5ZsACT39WONu/UtSsOnz+P9NRUJCcmwsnJCYEhIajj4WHR+AWJRAK/gABMmjoVr73zDjLT03EnKQkZ6enw8fND0xYtBDkQSktL8bOZ3P47Nm/GoGe1Y3femTED/3nlFWSkpcEvIMBgeeiqyMnOxs7Nm/HEvyO3pVIppsyciSkzZwoCkPfffBO7tm41W9aBPXvQp39/AOWvxfQ5czBt9mwUFRVpxg+oVCp012kGJdtZvngxxr78suY95hcQgL0nTiApIQFymQwBwcE1Pgh08LBhgs+cMZFRUViplyX1yMGDtWI12NwC8/lO7jf2uMZUlf76VAAsDnq2bthgkNeotrFLZpMdfxtf736nif26lKoyzN/0lmCfTCpD6/CO6NKsP8L8IjRBRmlZCc7crN2ZPWvKqqVL8eXcuVDqjFqWyWTwDwxE1COPoGlkJDy9vKo0SFIqlcLHzw+RUVHo1rs3WrRqZZBo6e0JE3AvJcVkGV/OnWsw9dXbxwcRTZpoLgAlJSUmU1db6qP330dCfLzRv6HiFmam/7bC7KlTDeb2S6VSuLi4wNXNDa5ublxsS0QlxcXYtnGjYJ9cLke98HCEhIVpgozN69fbZTzSg2LV/s8w4vMOGPF5B8zdOKmmq2NT9rrG1Ea+EcZXHS/ISLXL89sl0EhKv4XMPGE/U1FJAa4knjHxCKEbKbF478fRSM2+Y/S4UqXE9eRYTFo+EHey/hHsr0ypzqyY2jggTjfTnLlkQpZYvWwZnujaFTeuXTNMNKNDrVYjIT4e/1u8GD+aGHuwZ9s2i/oOr8TGYviTT+LPgwfNnpeTnY3BvXsjy0TWyIKCAox55hmD57RmmiNQ/noO7NkTPyxfjtS7dwWBlzUKCgrQu107bN2wQTPgVp+51/hhY+3/qYK5TJ2zp03Dap2lt/X9vnMnZk+bVml5xv53lqjscVX9m5m+H9Ua/GjqdbfVNUZ/qmxNq2xRSwBo8tgQg30qpRInlttnbS9Jm6ZtbHI1zCq2T/ruev6NEO7fDGF+DZGWcxfn44+bHBxKpkmlUjRu1gzRHTqgeatWKC4qQnxcHOKuX8fpEycsvti5uLigc48eCAsPR2hYGJydnZEQH4/rV6/i3KlTuGumFcNUvVq1aYMOXbqgQaNGSL17F6dPnMCBPXuq8mfSQ8DL2xtdevZE2/btIZVKcfvWLfy2bt0DMYiObO9hvMYM+34vvMKE44MubfsJh7543y7Pf98FGkRERGS58XuuQ6rTna0sK8WKp1pBWVK93ByW4mpXRERED6ig1u0FQQYAXPztB7sFGQADDSIiogdW4z5PC7aVpSU4vmyeXevA3MlEREQPqLw7CchO0s60u/jbaqiqObHAWhyjQURERKJh1wkRERGJhoEGERERiYaBBhEREYmGgQYRERGJhoEGERERiYaBBhEREYmGgQYRERGJhoEGERERiUbORFtEREQkFrZoEBERkWgYaBAREZFoGGgQERGRaBhoEBERkWgYaBAREZFoGGgQERGRaBhoEBERkWgYaBAREZFoGGgQERGRaBhoUkvjzQAAIABJREFUEBERkWgYaBAREZFoGGgQERGRaBhoEBERkWgYaBAREZFoGGgQERGRaBhoEBERkWgYaBAREZFoGGgQERGRaBhoEBERkWgYaBAREZFoGGgQERGRaBhoEBERkWgYaBAREZFoGGgQERGRaBhoEBERkWgYaBAREZFoGGgQERGRaBhoEBERkWgYaBAREZFoGGgQERGRaBhoEBERkWgYaBAREZFoGGgQERGRaBhoEBERkWgYaBAREZFoGGgQERGRaBhoEBERkWgYaBAREZFoGGgQERGRaBhoEBERkWgYaBAREZFoGGgQERGRaBhoEBERkWgYaBAREZFoGGgQERGRaBhoEBERkWgYaBAREZFoGGgQERGRaBhoEBERkWjkno6eNikoqzjLJuUQERHRg4MtGkRERCQaBhpEREQkGgYaREREJBoGGkRERCQaBhpEREQkGgYaREREJBoGGkRERCQaeU1XgIjE91QPCUL8lACALQdlSE5V13CNqLbo1wWoH6QCAOw+KsOtJL43yLYYaBA94Jo3lOCraf9ots9crY/k1JqrD9Uu457OQ5tm6QCA4f3roPtYrxquET1oGGg8JN6YPh1DR440efzC2bOYOGqUHWskLt/QVuj74kpAIjF6vDg/Exs+7WXfStWQRdO1WXtvJnjgxHn+YrWHlb/+ikZNm5o8/v2SJVi+aJEda2Tc1M/dsXdZeaBRNzAHg3t7YdO+Gq4UPVAYaDwkmrdsCWcXF5PHA4KC7Fgb8Xn4N4Sji+n0+goH06/Fg+SpHhLUD9EGGu9+5QWAgYY9NGzSxOxnzj8gwI61Me1mohqnL/oiukUaAOCDV5KxeX8wVHybkI1wMOhDorCwEGq1WnB7kKlKi6FWqwS3h9Hsl+9q7l/7xwunLz7Y//fapEjEz9w3q1fj8IULOHzhAhavXFnt8t753E1z39WlFG+Ofjg/LyQOtmg8JCa/+KLBvt9PnoS3j08N1EZ8ty7swK13dwj2dRkyD43aPVtDNbK/3h0l8KxTqNle+FOdGqzNw6dP+/YG+/6Oi7NJ2Q0iIuDq6goACI+IqHZ58clqxCV4oUHdTADAqCdTsWB17WhxofsfWzSIHlBvjszV3C8pUWDH4RqsDNV6P2zXBqIe7kXoFl2DlaEHCgMNogeQt4cEzRpkaLYP/f1gtlyR7azZDqjU2sHTb40uqMHa0IOkxgINN3d3SKXVf3oHBwcb1MawTAdHR5uU5eLiYtM6yuVym7xuYnJ1c6v8pAeERCqDRCqzSVlSmRxSmW16MycMVUIi1Y4J+PYXJ5uUa4xcLoeLmUGPlXFydoZUZpvXEADqeHjU+s9IbVRWBpy/6qvZbtkoDTK+jGQDdhujMWTkSPQfNAh1w8Lg6e0N2b8XlpLiYtxNScGaFSvw65o1UKnMD0KKjIrC61OmoEFEBLx8fCCVSqFSqZCZkYF/bt7E0oULcfLYMbNlvPTaa+j7xBMAgMyMDEwYORJR0dGYOmsWGjVtqqlbUWEhbv/zD96eOBFJCQkW/Z0NGjXCjLlzEdGkCZydnTUXPJVKhZLiYvwTF4edmzdj488/Iz8vr9LyPLy8MPPjj9G4eXP4BwZCoVBArVYjLzcXSbdvY+vGjVhrg8Fg1THs+efx+IABqBcejjqenpBIJCgrK0Pq3buIPXcOs6dORUHBg/PrqFXPl1G3WS94+EfA0dkDAFBSlIvse9eRdO0wzu5bBLVKaVFZnv4RaPvYW/ALawuXOv4AgPysZNz95xTO7VuIovwsdBo8R/M+OrZ5Fgqy75orEgDQrW2+5r5KLcGZK1UbiOjq5obv16/XbC9fvBh7tm1Dq7ZtMW3WLEQ0aQKFQgEAUCqVyEhLw/JFi7B+zRqTZfoHBmLKzJlo3KwZAoKCNIF4bk4Okm7fxsqlS7Fn2zaL69izb19MmjYNAYGBcHRyguTfKc1KpRJFhYW4eP48Nv78M37fscPk9WXMxIno3a8fACA7MxOvjR1r8vmGjxmD/oMGAQDuJCVh6quvWlzXqnhtyhR06yWciu0fGKi57+vvj3U7dxp97PZNm7Bq6VKLn+vPv50Q9e+MXIlUjR7tJdh33Pr3Tsunx6DJY0ME+4pzs7D1nQdnCj1ZTvRAw8fXF9+sXm1yPrmDoyPq1quHd2fPxhvvvouYFi1MljV+0iRMmDxZcyGpIJVK4ePrCx9fX3y3Zg1WL1uGL+fONVnOIx07IqJJEwBAaWkpWrVti+W//GLwK8jJ2RmNmzXDpn378Ma4cTj6xx9m/9Z5Cxei75NPGj0mlUrh5OyMpi1aoGmLFnikY0dMfukls+V16toVXyxdatC6IpFI4F6nDppGRqJpZCT69O+PiaNHo6S42Gx5tubm7o6lP/2Epkb+Z3K5HEEhIQgKCUHnHj3w2gsv4Ozp03atn605u/ng8fE/wSOgkcExByd3+IW1hV9YW0S0GYwd3z2H/OwUs+UFN+6KPmNXQKrXIuLqGYwGUQMQ1qIPTm77GPVbPq45dnbfIosCjQahOZr7d1Or3sLk4OCg+awAQONmzRDesCEmTJ5scK5MJoNfQACmz5mDgoICbN+0yeCcgUOH4v2PP9YE87oq3tPzFi5E7379MH3SJLM/PBwcHLB+927UrVfP6HGZTAZXNze0j4lB+5gYzHJywpZffzV6bscuXdCiVSsA5dcEcwYMGYImzZsDsM1AzMo80qGD4H+gTy6Xmzzetn17qwKNXUdleG2EdvuJrsXYd9z6Ftmglu3gG9Hc6sfRg0nUhrHoDh2w69gxs0lrdDk5O5s89tGXX2LiG28YBBnGPD9uHBZ9/71Fz6lQKLBs7VqzTa1yuRwfff652XImTJ5sNMhQqVRGp7WZ+1sB4InBg7F41SqLunCiHnkEu48etWtzcUTjxvj9r7+MBhn6XFxc8L9169CuUyc71Ewczm4+GDr9T6NBhj43nzAMefcw3LxCTJ4T1uJRPPbiKoMgQ5dc4YxOg+dYXdeIMAkUijLNduwNV6vLMKVD585Ggwx9xgKJT77+Gv/3ySdGj+nr078/ft6+3ew5y3/5xWiQYSo4cXN3r/R5HzQF+fmVn6Tj0k21YJxGuxaVt7oSVUbUFo1PFi0SXFSUSiVWLV2KfTt34nJsLLy8vdGxSxcMHT0aUdGmhzgHBAai31NPCfadPnECiz/7DGdPn0Zk69aYMHkyOvfooTke0707GjRqhLjr1yutp0KhgEqlwtKFC7H9t99QXFSEZ0eNwouvvqoJbDy8vNCzb18c2LPHaBmj9Fontvz6K76aNw+ZGeUD8vwDA9Ghc2e8MH48GjSq/MvqnRkzBNvpqan4eMYMHDl4EL7+/nhmxAiMmTBBUL//vPKK3TINfvrtt4IgqKS4GAs+/BB7duxAbnY2mrdsifc+/FATiEgkEsxduBCPtmtnl/rZWrsn/wuZXPv3KsuKcfiXKUi8dhBQqxDcqAu6PrsACsfyL3WpVIZOgz/A3hWG04oBoNOgDwXb2Xev48jG93Dv9lm4e4ehbd83EN76KaOPrUx0M2Fge/aqbcYbAdD86geA5MREHN6/H2dOnYJMKkXLNm3wxODBcK9jOI22Q+fO6PNvd2WFk8eO4at583Dl4kXU8fDAgCFD8PrUqZprRkSTJhgwZIjRVghff39Etm6t2VYqlVi8YAF+XL4cZWXlQVaDRo3Qs29fDB8z5r6exv32xInw8BKmBf9uzRr4+JaPp0hPTcUEE1l9b9+6ZfXzZWa5wserPMDw9iis5GyiyokWaEyYPFnw4c7OysKoQYOQdPu2Zl9mRgZ2btmCnVu2oNdjj2Hyu+8aLWvmJ58IWjIO7N6Nt19+WbMde+4cXv/Pf/D+Rx/h6eHDNftnffIJnn/66UrrqlKp8Fz//rhx7Zpm3zeff47srCy8/f77mn1PP/ec0UAjODRUM6cdAI4dOoRZU6cKzrmXkoKtGzZg64YNqFuvHkJNNPcC5eNZPDw9BY8d0LOnpmskOTERX8+fj9izZ7FgyRLNeWMnTsSKb76pdJxLdfUfNAj1wsM122n37mFQr16CcRix585hxFNPCbqTvH18MGHyZHz31Vei1s/WnN180CBqgGZbWVaMTQv6IDcjUbMvPnYPUm/3wtPv7NcEG6FNesLdO1RwHlDemlExHgMAMlMuY8tXA6D6d1xHTtotHPxpMpRlJYiIfsbq+gb5Cf//KelWF1GpNStWYMGHwmBp55YtmD97NsZPmoTzZ84Ijn34xRfC7f/+FxvXrtVsZ2VmYvWyZdi9dSu2HjoEubz80jRt1ixs27QJKqVwzMszOp9zAJg7c6agPACIu34dcdev43+LF6ND5864m2K+K6u2Sk9LQ3pammCfskzbYlVaWmrRDypL5RXI4fNvXOPoaNlYIyJzRGtr/88rrwi23xw3ThBk6Nu/ezcG9uxpsF8qlaJjly6abZVKhelvvGG0jI9nzBD0r0ZGRVnUXHrk4EFBkFFh7cqVml9HAOBnImVwUIiwiTwzM9Ps8yXEx+PYoUMmj7+o99p9MH260fEXB/bswY2rVzXbzi4uGDRsmNnntoWp//d/mvsqlQpjn33W5GDP9958E4U6xwYOHSp6/WytVc9XIJFoPyqXj6w2CB4AoCAnFWf3LRTsa9PnTYPz2vYV7vtz/XRNkKHr+JbZVcpoGuSrF2ikVd7daI3DBw4YBBm6li5ciH9u3tRsPzt6tObXNwAc/eMPg6Cgwt2UFCxdqH0NnV1c0LlbN4Pz/Pz9Bdtp9+6ZrfOJI0cEdSLTcgu0vz+lEjWktn370ENIlEAjMDhYMxIdAG5cvVrlgYBh4eGC1ozTJ06YHPSoUqlwaJ9wNaBmkZGVPseSL780WV62TtBgqvlV/9dEr759K31Oc7x0nic/L8/sINTlixcLtnWbk8Ugl8tRx8NDs3310iWzAaRKqcQRnfr76n1B3A+8AhsLti/88Z3Jc68c/VEQHOg/FgDcvLStWQXZd5GWeN5oWaVFebgXb/3nxttDGLSkmo97raJWqzFryhSrHtO5e3fB9iezZpk9f/XSpYJxTZ2MBBoJ8fGC7ZdEnvnxMMnJE46h8fO2PtJIPnscOXcSDG70cBKl60R/vMW+XbuqXFbjZs0E23//9ZfZ808cOaKZpgYAjZo1q3S66/UrV0wey8nOho+fHwDA2dX4oLrMjAyUlpZqgisnZ2ccvXgRe7Zvx57t23H88GGrujN0827cquRX2EG9rpyQunUtfp6q0A9kmkVG4oROqwoAgwG7uuN05HI5gkNDkZxo2CJQW7l6alusSopyUZSfYfLcstJCFOakwsWjvPXLuU6gwTkKR23OiYyUS2afOy3hAgLqWzeupahY+PvB1cl2a2wk3r6tGXdkqTCdbjYA+FXvPWtsgLfuPmPB84kjRwTbkVFR2HviBLZt2oRdW7bg6iXzryuZ5uggDFRzqzAzPXbzD4jd/IONakT3O1FaNFroXRjMfZFXppHetK1EM7+eASDhn38E2w0aNjR7vlKpFHSP6CspKdHcNzfjZcU33wi2nZydMWDIECz6/nucvH4dv588iQXffouoRx4xW596ehfl9NRUs+eXlJQIgpjA4GCz51dXyzZtDPYpFArBTS6XC276r5u3TjP6/cDZXdsKU1KYXen5RfnaQRH6K8i6eggDj/ws8+MG8rKSLKmiwN0M4cc6yIaNSCnJyVY/Rr8Vq7L3S8X4jArGuj+vXLyIi+eFLUE+fn54Yfx4rN22DSevX8f2w4cxfc4c0YPvB42Hu/Z6qFZJUFDIhfioekQJNOo3aCDYvmlk/IOlQsPCBNuVJc7SD0SCK7nI2Grg5HdffYVfTSQpkkgk8PbxQc/HHsOKdeuweuNGk9Nb9WekpN6tPGdCmc64FN1BpGLQH/2uVCpRWlpq1U3/i6S2kztos2rqBhGmFOZpg0OpVCbI9unmFSo8N9d8IKksLbK0mhp3UoUf6wAbTrioyiwGZ733urXvl7zcXKPlThw1CrHnzhk9JpPJEBQSgqEjR2LrH38IxhWRee4u2utJmdJ2GVvp4SXKFT9LbzCkt68v4qtwgQKAnJwcwbbu+ABj9I/n6j1eTB/PmIHlixfjpVdfRbfeveHr7280t0VkVBSWrV2L0f9mF9SVmS78InOxIJ23bvpmsZN2SfVaJ76YOxc/rVgh6nPWNLVKCcm/uZgVispTbVfMOqmgUmp/IeZn3xEcc3IzHwXI5NYnS4pLEr7nGoaWwVYf9ezsylt09CmVSs3nID8vD111pshWR35eHp4fPBjNW7bEuNdfR1R0tCYzrb7nXngB2VlZNpnxZEkun/uZu6v2GlJQdH/9KKDaSZQWjcsXLwq2LUnqZIr+QEtTWQAr6Hc92Huk+b2UFHw8Ywb6xcTgkYgI/OfZZ7F1wwZBFwxQno/AWN/zFb2+ZX8TM1106bYQpFYy+r669H9BhoSGmjjzwVFckKW571hJYAAATq7arqHSYmHCpLwsYdeDq2eQ2bJcPazvCjtyRg21Svtl2LaZ9a0itqQbPDs62X7NlUsXLuDN8ePRMzoaHZo0wbuTJuH4n38aJMrTnwmnq6jQ8nwRYrca1iRPdwlcnLWB8fX4hy/JGdmeKOHq+b//FmxHRUdXeT0O/UFdDRsbjuLXFaGXhfSmDeeXV8XZU6dw9tQpzJk+HT9t24YInfp37tHD4Iu7qLAQSqVSM4AyqJIxF/X1xqBYuiYLAEFuAicLvwDO6c0e0p/aawsvbr0AhYvhwNuDn72LKzvXVbncsjLtLzVrFkLLz06Gs3v5gGAHZw9AIgGMZHutoDumozBXL/BTq1FaXKAZEOoVYP797BNifRrnklIgLcsJft7lX571g7MB1NxCd8lJSZq1OSrGYJgbF1UdZWVl2LNtG/Zs24bA4GBs2LMHzv8u+KZQKEwORNbNS1FZ1557Ja2qlnK1UaZSW7aw9IkRvq/3/1W1wNDVNwD1Y/oY7L91eBcKMtOMPIIeZKK0aFyJjRVs9+rXr8qrO+oPJO312GNmz39y8GDB9lW91pWaUlZWhjfHjRPs0x+NX0E3bXBIWJggB4G+CZMmCbbj4+IsrlOazkDTyrqkKqSnpQnGtXTu0cPmK+hKTZQnqWaK9Zw0bfedRCKFo4tlf3NuhjZ4k0plCI983OS5QQ07CmaV5GcZDp7U7T5x8wqFp7/x9TJkCicENqxa2vazV7R/m4tzGTzda665/6berKQ333vPLs+bkpyMNXrdevqz2Crc0RnkKpFI4Kk3FqlCYHBwtVaq1W3ZDK5Ga6DuNcLNSCbWquoRLWx53bS/amM0wjr0RNfJHxjcglt3tEU16T4jSqBRVlaG2LNnNdsymQyzP/us0scNHTnSYF9+Xp4gK14dDw900Uk1riuydWvBqob5+flVHhtiDVc3N5MXJl319AbJmhrkdkpvOu4b06cbPc/B0RE99QKv33RW2qyM7sBZZxeXSmfEVPjzwAHNfYVCgWmzZ1v0uCbNm1uUfl0sWfeE3WjNYp636HE3Tm8UbEc9+prJc9v0ESaTu673WAA4t1+YJr7T4A+MlhX16CRBojBrrNkp/CU6ZmDNZXhcvmiRIDgdOmqURV/WcrlcMFVdV0BgoEWDigOChF1TWSam5t7Wm632oom8HNPnWL/2jK6cLG03XItWrao8MFo3MHJxcYGXt3e16lUhJko7vi471wl30znjhKpPtMyg77zyiuDi0rtfP5OzLZpFRmLvX3+Z/BB/rpeF8Itly9Cpa1fBvlZt2+J/64TN6kvtlOq6+6OPYv/p0/h5+3aTLS4BgYH45OuvBfu2mlhJcs577wn6l58YPBivvPWW4Jw6Hh7Y9scfgtaE0ydOmE2epW/31q2C7UUrVyK6Q4dKH/fe5MmCDKyDhw3D4lWrjP5vpVIpho8Zg51HjmDttm14fMAAg3PsJTX+b0EGzta9J6FB1ACzC5sBQOKVg8hL176unoFN8eiYZeVdKDq6DfsMAeHtNdtF+Rm4+bfhCqZxZzYLxn0ENuiIfuN+gPO/4z9kcke06fMGWvWYaN0fqOPQKTVy8rTBxtA+WWbOFtfdlBRs0MkEKpfLsfevv0x+VuqFh+OLpUtx7PJlfGQimd602bNx7PJlLF65UrOSqr6Y7t3xpM4SBGVlZSYTB546flyw/ezo0WjVtq1g35SZM9HVSPZia5w5eVJzXy6X45cdO6rUsqHbcimRSPC/X36pdjK8lo0k8HDXjudZt8evWuURVRBtSPG9lBT8+tNPeFZnsZ/IqCj8eeEC0lNTkXj7Njy9vBBgQVPkzi1b8Nb772u6EGQyGRavWoX0tDQk3b6N4NBQ+Pj5Cfoq8/Pz8cPy5eL8cSY0btYMn337LUpKSpCRlobE27dRXFSE4NBQ1G/YUFC/9LQ0k1PzsjIzcXDvXvTUyTD60muvYfiYMbh18yY8PD0RHBpqsArmrGnTrKrvvl27cCcpSTPOwsXFBcvWroVardYEOkqlEn3at0eOzmyDgoICfLNggWBtmk5du+Lw+fNIT01FcmIinJycEBgSgjoeHnZdVdac0uJ8XPrze0R2K18ATyqVofvwL9F9+JeCAGTfypeQeFWYjfXYllnoM1bbDF+3WW+Mmn0BGcmxUKtV8AlpaTDb5OT2uSbrcnzLbHR/Trv+R1BEZzw34yTKSgshV5hf2ddS63b74aVnyrt9gvxzERrgg8S7NfML9ZNZs9B/0CDNmkDOLi747NtvkZ+XhzvJychMT0dwSAi8fX01YyqA8vefKTKZDJ26dUOnbt1QUFCA1Lt3kZyQAJlcjvoNGghaNwHg8P79JsuKu34dSbdvI+Tf6fQKhQLfr1+PeykpKMjPR2BwsKBeVTXnvffQq18/zWc3PCIC2w4dEvwoS0lOxpNGsqHqWvb113h29GjNZ6t+w4bYc/w4SktLBTPPtm7YgPkWtji+PkIbZKhVEny1RgaALRpUfaJ+A8ybOROr9NIJS6VS+AUEoE27dgiPiLC4v/OlYcOQoTf108fXF63atoWvv7/gSzw3Jwcv2WHND1McHBwQGByMRzp2ROcePRAeESGoX2lpKV6oZLG36ZMn45zeoFpXNzdEtm6NuvXqGayKO3vaNKtaMyq88/LLgrVIgPJfSFKpFFKpFAqFAi5GMqKuWroUX86dK/gikMlk8A8MRNQjj6BpZCQ8vbxqTZBR4e/dC5CedMFgv1Qq09z0c10A5a0ap3Z+ItincHRBQHh7BDboaBBknD+4BDdObzBZj7gzm3Hwp8kGa5noBhnKsmIc3fhfi/4uYxb+JBPMPpk8stTM2eJSKZV4pk8f3LpxQ7Df1c0NEY0bo12nTggJC6vyl7mLiwvqhYejU7duaB8TYxBkJCUkYEolacq/mCsMDCUSCQKCghAeEaGpV0J8fLUSEObl5mL+rFkG+XsqPm9SqdSilWYzMzKweulSg/0KhQKubm6am6XJyqQSoFtb7fX11CXfaiXq8gozPu4o7571Cejo/if6t8BX8+ZhaL9+laacvnvnDubqLY2uK/7WLfTt2BGHDxwwmLam6/SJE+jTvr3ZFMT6X6yWKtWbolrh3N9/4+SxY8jPzzd6vIJKpcK+XbvwWMeOlb4eJcXFGDtkCBZ/9pnZX3X3UlIwqHdvbLZibIauy7Gx6NO+PY4cPIjszEyzr62+1cuW4YmuXXHj2jWzj1Or1UiIj8f/Fi/Gj5bk3LCiDtZSlhVjy8KBOLVjHnJS46BSWv7le+Hgd9j69SCzKchLinKxa+kInN45v9Lybp3biu3fDMHdW38JpsEWF2Yj4dLv2L74GYP65WVafqHOK1Bj91HtF+7AHnfhaOW4Xf1p2fkmxhVZ4l5KCp7p2xdfzZtnUK6+osJCHDl4EG+OH2/0+G/r1uHKxYuCLjxjSoqL8b/FizGwVy+DFWD17d+9G29PnGhyRkxCfDyG9e8vCBJMXRPMWb9mDZ59/HFcuXix0muGOQvnz8dbEybgSmwsSoqLjX4GLb3WTRqpgoOD9rX879fGl1uwVN323Q325aQkIuXSGSNn04NO0qZpG5tc1bOKK+8DlspkiGzdGtHt26NJ8+bIysrCtUuXcPrECasGbUqlUkRGRaF9TAwaNWmCuBs3cOLIEZw/c6bSi4nYAgID0aFLF9StVw9BoaFQq1T45+ZNXLt8GX+fPIn8vLwqlVsvPBwx3bujRevWyM7MxMljx/DXkSMmV021N6lUisbNmiG6Qwc0b9UKxUVFiI+LQ9z16zh94kStqaetODjXgX9YNPzrt4FEIkNqwhncvXVKMPbCWk6u3lCrVYIyoh97G616lf8SV6tVWPmu8V+Kprg4S3D2l0TIFeVfnj/vDMV7C2tHtkcPLy880qED2rRrBz9/fyQlJOCfuDhcOn/e6GrKpjRt0QIto6IQWq8eAoOCkJuTg7gbN3D10iWcOXnS6uy/Ts7OaB8Tgw6dO8PH1xcJ8fHYv3s3LuvNpntQSCXAhY1JcHYqf4/sPxGAl2ZVL9/J+D3XBYkEAWDrO6OQdOZotcql+5NdAw0isk6/8T8iqGEMgPLBpWs/sGxmkK63X1Dh1efKx2ooy2RoNaQuCovZ907l3n5ehVeHa98fbZ+ri9z8qr8/AiOjMegrYQtr5u2b+GWsYV4NejjUrg50ooeEVCqDTGH+V6ObV4gmyACAzDuXq/RcC1ZJcSvRC9m5TsgrVCCqaeWPoYdHTFQBsnOdkJ3rhEU/h1QryACAxn0Mx5/98enUapVJ9zcmsieqAd7BLfDkaxuREncc5w9+h+RrhwXH/eq2Rp8XVwr2Hd30fpWfr/e4OgAqEjuxNYO0nnnLDbbMHBsa3UWwnXbzEsdmPOQYaBDVEIlEiqCGMQhqGAO1WoWivHQUF+bA1SPQYBZL3NmtyEmLr6GaElkuI+4K1DrjYg7Mn1KDtaHagIEGUS0gkUjh7O6nWVNFV9zZrfhzPZtEEqvlAAALWElEQVSe6f6wa+aEmq4C1TKyIN+gWbYoqEhZsytEEt1PSkvyIZXKoXBygaOLt0Gq8dLiAuSk3cAfP01G7KHlUKtqdjYVEVFVcdYJUS0glSng6hEAhaM7su7dsCq/BxFRbcauE6JaQKUsRW6G+SRuRET3I05vJSIiItEw0CAiIiLRMNAgIiIi0TDQICIiItEw0CAiIiLRyDktlYiIiMTCFg0iIiISDQMNIiIiEg0DDSIiIhINAw0iIiISDQMNIiIiEg0DDSIiIhINAw0iIiISDQMNIiIiEg0DDSIiIhINAw0iIiISDQMNIiIiEg0DDSIiIhINAw0iIiISDQMNIiIiEg0DDSIiIhINAw0iIiISDQMNIiIiEg0DDSIiIhINAw0iIiISDQMNIiIiEg0DDSIiIhINAw0iIiISDQMNIiIiEg0DDSIiIhINAw0iIiISDQMNIiIiEg0DDSIiIhINAw0iIiISDQMNIiIiEg0DDSIiIhINAw0iIiISDQMNIiIiEg0DDSIiIhINAw0iIiISDQMNIiIiEg0DDSIiIhINAw0iIiISDQMNIiIiEg0DDSIiIhINAw0iIiISDQMNIiIiEg0DDSIiIhINAw0iIiISDQMNIiIiEg0DDSIiIhINAw0iIiISDQMNIiIiEg0DDSIiIhINAw0iIiISjdzT0dMmBWUVZ9mkHCIiInpwsEWDiIiIRMNAg4iIiETDQIOIiIhEw0CDiIiIRMNAg4iIiETDQIOIiIhEw0CDiIiIRCOv6Qo8DKJbSNCuuRIAcPqyDCdj1RY/tl8XoH6QCgCw+6gMt5IsfywREVFNY6AhMrkcWP1hIpydygAAa7aF4GSs5S/7uKfz0KZZOgBgeP866D7WS5R6EhERiaFGAo1G7Z5FYHg7ePo3hIOzh/aAWo0Nnz1aE1USzeyXlZogo7RUjjlLrXvJp37ujr3LygONuoE5GNzbC5v22byaREREorBroOEV0Bh9X1wFF48Aez5tjfH2kGDY40ma7TXbA1FSal0ZNxPVOH3RF9Et0gAAH7ySjM37g6FiDwoREd0H7DoY9NGxyx+aIAMAvphSCKmkPCIoLZXj4//JqlTOO5+7ae67upTizdEqm9SPiIhIbHZr0agX2RduXqGa7YKceziz90vkpMVBWVpsr2rYjbOjBJ3b3tNs7z3uh7KyqpUVn6xGXIIXGtTNBACMejIVC1Y/PAEbERHdv+wWaATUby/Y3vLVEyjMS7fX09vda8PLNK0ZALBwjSOAqvd3/LC9Dv5vYnmg4eFehG7RwKHT1a0lERGRuOzWdeLhH665X1yQ9UAHGQAw/HHt35ee6YZr8dUbVLFmO6BSSzTbb40uqFZ5RERE9mC3QMPZzVdzv7Qwx2blSmW2bZSxRXnNG0jgWadQs73ziIeZsy1TVgacv6p9DVs2SoOM6daIiKiWE6XrpEmH4WjYZqBgn4d/hOa+i2cQ+k/82ehjdyx5zmzZXgGNEfXo6/AObgE377qQSmVQqZQoyExC+p1LOH9gCdISz1tcV1uXBwADeymFf9NhBarTbVLhz7+dENW0/L5EqkaP9hLsO259uS2fHoMmjw0R7CvOzcLWd0ZVu45ERES6RAk0ghp2REB4e5PHpTKF2eOmNO04Eh0HzYZEIvwpL5XK4OYTBjefMNSL7IeTO+Yi9o9ldi+vQtc2+Zr7apUEf12wzVzUXUdleG2EdvuJrsXYd9zB6nKCWraDb0Rzm9SJiIjInFrV+K5Wm5622eGpGeg0eI5BUGBMu/7T0W3YZ2bPsXV5uhrW1XYNpWe72iznxaWbasE4jXYt8mxTMBERkUhEadE4umkGTu2cL9jXd+wKeAQ0AgAU5Wdg69cDDR5XVlJosA8AnN180KzzC4J98bG7cPb3r5Fx5zK8Ahojsvs4REQ/oznesO3TOLP3S+RmJIpeni6ZFFAotPNYb99xMnu+tTKzXOHjVR5geHsYf72IiIhqC1FaNEoKc5CXmSS4lZUVaY6XFeUZHM/LTEJRfobR8to9+V9By8PVE2ux/4dXkHHnMgAg8+41HF43BWf3LRI8ruOg2XYpT1ewn0SwnZFj21gur0BbnqOj0syZRERENa9WdZ0YJZGgQdQAzaZKpcTxzbOMnnpm7xcoK9X+yg9t0hMKRxdxy9MTFiTczsiuWjZQU3J1Ag2pRA2pxMzJRERENazWBxpunsGC1ofbsbugUppYMEStxo3TGwW7PPwiBNu2Lk9fgK9wQEZGtm0jgZw8YeDi5219+clnjyPnToLBjYiIyNZq/TLxdfwaCLbvxJ0we37KjWNo2nGkZtvDr4Fgeqqty9OXrzdswsW2QzTg6CDsLsmtQt6u2M0/IHbzDzaqERERkWm1vkXD07+hYDsvM8nEmf8ezxIe1w8sbF2evoQUYQuDj6dtF0DzcNcONFWrJCgo5DKuRERUe9X6QMPdK0ywXZhz1+z5+dnJgu06PsLH27o8fQkpwm3vOlVcSc0EdxdtN0+Z0rbjP4iIiGyt1gcaxYVZgm2Fk5uJM8s5OLkLH18gfLyty9OXm6+GWqVt1QjwMTH+o4rcXbUr3RYU1fqeLyIiesjV+kAjO/WWYNvVM8Ts+W5edc0+3tblGZOWpR2YERpgu6Ranu4SuDhrW0iux7ubOZuIiKjm1fqfxDmpNwXbnpWMkdAfQ5GdFidqecacueKJvjHlo0IdHEoR6CtBSlr1x1L0iRGWsf+vqo00dfUNQP2YPgb7bx3ehYLMtCqVSUREZEytDzT0WxAiHhmK07sXmDy/SYcRgu2ce8LAwtblGbPjT0f0jdFuP95Fhe9/q/401x7RJYLtTftlqMpibWEdeqLr5A8M9hfnZOHGwW1VrR4REZGBWt91UlZaiLz025ptlzr+CKj/iNFzvQIaC2aVFOVnIC9LOJjT1uUZs+tP4ZokA3vYJlV4TFSm5n52rhPupnPGCRER1W61PtAAgGNbZgm2+41fA7+wKME+r6AmePL1TYJ9J7fPtUt5+kpKgRPn/DTbkY3T4Gj9IqsCLRtJ4OGuTeO+bo+fmbOJiIhqh1rfdQIAiVcOIi/9Ntz+nVoqlSnw5KsbkZd+G5n3rsPDrwHcfeoJMn4W5WfgxukNdinPmHkrXLB5Yfl9qUSNsQNVWLK+6nHd6yO0QYZaJcFXa6rWbUJERGRP90WLBgDsXDoCeZnClVPdfMJQt1lv1PENFwQFhbmp2P7NULuWp+/CdTXupWvXRRnRP9uqx+uSSoBubdM126cu+VYrUZdXmPE06nn3zCcvIyIispbdAg3dJeCVZcVmzjQuLysZv87viRunN0CtNp1tMz52F9bN7YycNPPTUG1dnjEfLffX3A8NzEHHVlUbEDpppAoODtp8HP/92rVK5VSo2767wb6clESkXDpTrXKJiIj0Sdo0bWOT9vesYvOJrGxKIoFXYGP4h7WFV2BjZN+Lw73408hIuQq1qgpLp9u6PB0HlmejXkj5axOf5ImeL3lY9XipBLiwMQnOTuX5M/afCMBLs6q3gMr4PdchlQmzim59ZxSSzhytVrlERET67osxGgbUamTeuYrMO1drZ3k6Xp/niS1flwca9UKy0DXaA4dPW/74N0erNEGGskyGNz91RnXGZgRGRhsEGZm3bzLIICIiUdw3YzTuV7E31NhxOAjZuU7IznVCTGvrFlmLiSrQPHbRzyHIza9eA1TjPk8b7Pvj06nVKpOIiMiU+7NF4z7z2scOAAKq9Nhn3nIDYH49FmuERncRbKfdvMSxGUREJBoGGg+ZjLgrUKu0rSoH5k+pwdoQEdGD7v4cDEpERET3BY7RICIiItEw0CAiIiLRMNAgIiIi0TDQICIiItEw0CAiIiLRMNAgIiIi0TDQICIiItH8P4F3xwSh8jXcAAAAAElFTkSuQmCC;" vertex="1" parent="1">
          <mxGeometry x="610" y="110" width="183.79" height="220" as="geometry" />
        </mxCell>
        <mxCell id="FGeQNSDKWj5AvoNFUdBD-5" value="执行栈" style="text;html=1;align=center;verticalAlign=middle;resizable=0;points=[];autosize=1;strokeColor=none;fillColor=none;" vertex="1" parent="1">
          <mxGeometry x="200" y="80" width="60" height="30" as="geometry" />
        </mxCell>
        <mxCell id="FGeQNSDKWj5AvoNFUdBD-6" value="" style="rounded=0;whiteSpace=wrap;html=1;" vertex="1" parent="1">
          <mxGeometry x="100" y="490" width="260" height="150" as="geometry" />
        </mxCell>
        <mxCell id="FGeQNSDKWj5AvoNFUdBD-8" value="全局执行上下文" style="text;html=1;strokeColor=none;fillColor=none;align=center;verticalAlign=middle;whiteSpace=wrap;rounded=0;" vertex="1" parent="1">
          <mxGeometry x="100" y="460" width="100" height="30" as="geometry" />
        </mxCell>
        <mxCell id="FGeQNSDKWj5AvoNFUdBD-18" value="name: undefined&lt;br&gt;foo: 0* 100&lt;br&gt;num1: undefined&lt;br&gt;num2: undefined&lt;br&gt;result: undefined" style="rounded=1;whiteSpace=wrap;html=1;align=center;" vertex="1" parent="1">
          <mxGeometry x="400" y="111" width="190" height="120" as="geometry" />
        </mxCell>
        <mxCell id="FGeQNSDKWj5AvoNFUdBD-19" value="GO" style="text;html=1;align=center;verticalAlign=middle;resizable=0;points=[];autosize=1;strokeColor=none;fillColor=none;" vertex="1" parent="1">
          <mxGeometry x="400" y="80" width="40" height="30" as="geometry" />
        </mxCell>
        <mxCell id="FGeQNSDKWj5AvoNFUdBD-20" value="var name = &#39;foo&#39;&lt;br&gt;console.log(name)" style="rounded=1;whiteSpace=wrap;html=1;" vertex="1" parent="1">
          <mxGeometry x="400" y="280" width="190" height="120" as="geometry" />
        </mxCell>
        <mxCell id="FGeQNSDKWj5AvoNFUdBD-21" value="0*100(foo)" style="text;html=1;align=center;verticalAlign=middle;resizable=0;points=[];autosize=1;strokeColor=none;fillColor=none;" vertex="1" parent="1">
          <mxGeometry x="400" y="250" width="80" height="30" as="geometry" />
        </mxCell>
        <mxCell id="FGeQNSDKWj5AvoNFUdBD-22" value="AO: GO" style="rounded=0;whiteSpace=wrap;html=1;" vertex="1" parent="1">
          <mxGeometry x="111" y="500" width="240" height="30" as="geometry" />
        </mxCell>
        <mxCell id="FGeQNSDKWj5AvoNFUdBD-23" value="代码执行&lt;br&gt;name = why&lt;br&gt;num1 = 20&lt;br&gt;num2 = 30&lt;br&gt;result = 50&lt;br&gt;执行 foo 函数内代码片段，创建函数执行上下文" style="rounded=0;whiteSpace=wrap;html=1;align=left;" vertex="1" parent="1">
          <mxGeometry x="111" y="530" width="240" height="100" as="geometry" />
        </mxCell>
        <mxCell id="FGeQNSDKWj5AvoNFUdBD-24" value="" style="rounded=0;whiteSpace=wrap;html=1;" vertex="1" parent="1">
          <mxGeometry x="100" y="330" width="260" height="120" as="geometry" />
        </mxCell>
        <mxCell id="FGeQNSDKWj5AvoNFUdBD-25" value="函数执行上下文 foo" style="text;html=1;strokeColor=none;fillColor=none;align=center;verticalAlign=middle;whiteSpace=wrap;rounded=0;" vertex="1" parent="1">
          <mxGeometry x="100" y="290" width="120" height="30" as="geometry" />
        </mxCell>
        <mxCell id="FGeQNSDKWj5AvoNFUdBD-26" value="AO: name:undefined" style="rounded=0;whiteSpace=wrap;html=1;" vertex="1" parent="1">
          <mxGeometry x="111" y="340" width="239" height="30" as="geometry" />
        </mxCell>
        <mxCell id="FGeQNSDKWj5AvoNFUdBD-28" value="" style="edgeStyle=orthogonalEdgeStyle;rounded=0;orthogonalLoop=1;jettySize=auto;html=1;" edge="1" parent="1" source="FGeQNSDKWj5AvoNFUdBD-27" target="FGeQNSDKWj5AvoNFUdBD-20">
          <mxGeometry relative="1" as="geometry" />
        </mxCell>
        <mxCell id="FGeQNSDKWj5AvoNFUdBD-27" value="解析阶段如果遇到函数声明，&lt;br&gt;会创建一个堆内存存储，存储了如下：&lt;br&gt;&lt;div&gt;1. [[scope]]：父级作用域&lt;br&gt;2. 函数执行体&lt;/div&gt;" style="text;html=1;align=left;verticalAlign=middle;resizable=0;points=[];autosize=1;strokeColor=none;fillColor=none;fontColor=#FF0000;" vertex="1" parent="1">
          <mxGeometry x="700" y="390" width="230" height="70" as="geometry" />
        </mxCell>
      </root>
    </mxGraphModel>
  </diagram>
</mxfile>
